<svg xmlns="http://www.w3.org/2000/svg" xmlns:xlink="http://www.w3.org/1999/xlink" viewBox="0 0 187.38 180.03"><defs><style>.cls-1{clip-path:url(#clip-path);filter:url(#luminosity-noclip-2);}.cls-2,.cls-24{fill:none;}.cls-3{isolation:isolate;}.cls-4{clip-path:url(#clip-path-2);}.cls-5{clip-path:url(#clip-path-3);}.cls-6{mask:url(#mask);}.cls-7,.cls-9{mix-blend-mode:multiply;}.cls-7{fill:url(#Degradado_sin_nombre_2);}.cls-8{mask:url(#mask-2);}.cls-9{opacity:0.2;}.cls-10{clip-path:url(#clip-path-4);}.cls-11{clip-path:url(#clip-path-5);}.cls-12{fill:url(#Degradado_sin_nombre_3);}.cls-13{fill:#7a6457;}.cls-14{fill:#f2ddc9;}.cls-15{fill:#f7e8d7;}.cls-16{fill:#303031;}.cls-17{fill:#4d4d4d;}.cls-18{fill:#ea5649;}.cls-19{fill:#676767;}.cls-20{fill:#f3f2f2;}.cls-21{opacity:0.56;}.cls-22{clip-path:url(#clip-path-6);}.cls-23{fill:#f8ab3e;}.cls-24{stroke:#676767;stroke-miterlimit:10;stroke-width:0.1px;}.cls-25{fill:#2a2827;}.cls-26{opacity:0.3;}.cls-27{clip-path:url(#clip-path-7);}.cls-28{fill:#94c11f;}.cls-29{fill:#114c42;}.cls-30{opacity:0.5;}.cls-31{clip-path:url(#clip-path-8);}.cls-32{fill:#00843d;}.cls-33{fill:#fff;}.cls-34{fill:#5793ce;}.cls-35{fill:#1a3e78;}.cls-36{fill:#d5ecfb;}.cls-37{fill:#f8c0b0;}.cls-38{fill:#eb9d93;}.cls-39{fill:#616160;}.cls-40{fill:#e62f26;}.cls-41{fill:#3a6dac;}.cls-42{fill:#284f8a;}.cls-43{fill:#009288;}.cls-44{filter:url(#luminosity-noclip);}</style><clipPath id="clip-path"><rect class="cls-2" x="134.24" y="136.09" width="38.94" height="4.23"/></clipPath><clipPath id="clip-path-2"><rect class="cls-2" x="134.23" y="135.99" width="39.04" height="4.36"/></clipPath><clipPath id="clip-path-3"><path class="cls-2" d="M140,136.36a11.42,11.42,0,0,0-5.34,1.51c-.21.15-.43.34-.42.57s.45.5.83.6a20.41,20.41,0,0,0,4.08.49c5.84.33,11.67.65,17.52.76a84.22,84.22,0,0,0,9.67-.26,25.57,25.57,0,0,0,5.27-1c.69-.22,1.45-.58,1.56-1.17s-.4-1-1-1.26a5.83,5.83,0,0,0-2-.23l-12.7,0c-3.75,0-7.54.16-11.26-.16a34.33,34.33,0,0,0-6.25.19"/></clipPath><filter id="luminosity-noclip" x="134.23" y="-9187.01" width="39.04" height="32766" filterUnits="userSpaceOnUse" color-interpolation-filters="sRGB"><feFlood flood-color="#fff" result="bg"/><feBlend in="SourceGraphic" in2="bg"/></filter><mask id="mask" x="134.23" y="-9187.01" width="39.04" height="32766" maskUnits="userSpaceOnUse"><g class="cls-44"/></mask><linearGradient id="Degradado_sin_nombre_2" x1="-7244.3" y1="3834.15" x2="-7244.25" y2="3834.15" gradientTransform="matrix(759.41, 0, 0, -759.41, 5501497.9, 2911815.73)" gradientUnits="userSpaceOnUse"><stop offset="0" stop-color="#fff"/><stop offset="1" stop-color="#1d1d1b"/></linearGradient><filter id="luminosity-noclip-2" x="134.23" y="135.99" width="39.04" height="4.36" filterUnits="userSpaceOnUse" color-interpolation-filters="sRGB"><feFlood flood-color="#fff" result="bg"/><feBlend in="SourceGraphic" in2="bg"/></filter><mask id="mask-2" x="134.23" y="135.99" width="39.04" height="4.36" maskUnits="userSpaceOnUse"><g class="cls-1"><g class="cls-3"><g class="cls-4"><g class="cls-5"><g class="cls-6"><rect class="cls-7" x="134.23" y="135.99" width="39.04" height="4.36"/></g></g></g></g></g></mask><clipPath id="clip-path-4"><rect class="cls-2" x="134.24" y="136.09" width="38.94" height="4.23"/></clipPath><clipPath id="clip-path-5"><path class="cls-2" d="M140,136.36a11.42,11.42,0,0,0-5.34,1.51c-.21.15-.43.34-.42.57s.45.5.83.6a20.41,20.41,0,0,0,4.08.49c5.84.33,11.67.65,17.52.76a84.22,84.22,0,0,0,9.67-.26,25.57,25.57,0,0,0,5.27-1c.69-.22,1.45-.58,1.56-1.17s-.4-1-1-1.26a5.83,5.83,0,0,0-2-.23l-12.7,0c-3.75,0-7.54.16-11.26-.16a34.33,34.33,0,0,0-6.25.19"/></clipPath><linearGradient id="Degradado_sin_nombre_3" x1="-7244.3" y1="3834.15" x2="-7244.25" y2="3834.15" gradientTransform="matrix(759.41, 0, 0, -759.41, 5501497.9, 2911815.73)" gradientUnits="userSpaceOnUse"><stop offset="0" stop-color="#010101"/><stop offset="1" stop-color="#010101"/></linearGradient><clipPath id="clip-path-6"><rect class="cls-2" x="125.65" y="48.88" width="4.42" height="10.1"/></clipPath><clipPath id="clip-path-7"><rect class="cls-2" x="33.3" y="97.77" width="73.83" height="42.55"/></clipPath><clipPath id="clip-path-8"><rect class="cls-2" x="28.45" y="70.76" width="86.36" height="57.16"/></clipPath></defs><title>datos personales_imagenes</title><g class="cls-3"><g id="Capa_1" data-name="Capa 1"><g class="cls-8"><g class="cls-9"><g class="cls-10"><g class="cls-11"><rect class="cls-12" x="134.23" y="135.99" width="39.04" height="4.36"/></g></g></g></g><path class="cls-13" d="M155.92,42.82a12.27,12.27,0,0,1,3,9.87c-.18,1.16-.53,2.3-.68,3.46a5.38,5.38,0,0,0,.51,3.43,2.79,2.79,0,0,0,3,1.39c-1,1.93-3.92,2.25-5.71,1a6.88,6.88,0,0,1-2.53-5.77,27.35,27.35,0,0,1,1.21-6.42c.34-1.38.56-3-.4-4.07-.77-.84-2.79-1.6-1.95-3.1s2.77-.74,3.62.22"/><path class="cls-14" d="M132.8,64.91a2.48,2.48,0,0,0,.86.11,22.41,22.41,0,0,0,9.5-2c1.16-.54,2.42-1.42,2.4-2.7a1.25,1.25,0,0,0-.15-.63c-.44-.76-1.55-.66-2.41-.45a81.09,81.09,0,0,0-8.56,2.42,2.16,2.16,0,0,0-.41-.72c-1.88-2.56-3.35-5.44-5.52-7.77a2.91,2.91,0,0,0-1.27-.9,1.09,1.09,0,0,0-1.32.56,1.61,1.61,0,0,0,.22,1.23c.82,1.74,1.64,3.49,2.47,5.23a11.7,11.7,0,0,0,3,4.45,2.82,2.82,0,0,0,1.17,1.22"/><path class="cls-15" d="M140.26,77.45a10.18,10.18,0,0,1,.09,6.13,1.42,1.42,0,0,0-.1.58A1.19,1.19,0,0,0,141,85a11.14,11.14,0,0,0,5.36,1,72.34,72.34,0,0,0,8.82-.51c.34-.41.11-1-.05-1.55-.47-1.57-.11-3.25.05-4.88a1,1,0,0,0-.05-.55.91.91,0,0,0-.36-.34,13,13,0,0,0-6.88-2,19.09,19.09,0,0,0-2.92.26,34.13,34.13,0,0,0-4.68,1.08"/><path class="cls-16" d="M146,134.94a16.36,16.36,0,0,0-3.95.17,14.55,14.55,0,0,1-3.26,1.84,2.37,2.37,0,0,0-.94.53.78.78,0,0,0-.12,1,1.08,1.08,0,0,0,.88.27,38.41,38.41,0,0,0,7.26-.61.76.76,0,0,0,.4-.16.66.66,0,0,0,.16-.31,3.48,3.48,0,0,0-.43-2.72"/><path class="cls-17" d="M156.19,111.3c-.33-7.19.35-14.53.29-21.76a17,17,0,0,0-1-7.42,1,1,0,0,0-.22-.41c-.34-.35-.92-.16-1.37,0a14.63,14.63,0,0,1-13.3-1.14,9.58,9.58,0,0,0-1.18,4,67.71,67.71,0,0,0-.73,6.79h0c0,.49,0,1,0,1.46a64.36,64.36,0,0,0,1,8.41,39,39,0,0,1,.55,5.5,19.85,19.85,0,0,0,.15,4.36c.83,3.64.83,7.6,1.18,11.32.38,4,.75,8,1.06,11.94l0,.48c.2.05,3.27.76,3.27,0q.36-11.59.74-23.2a42.49,42.49,0,0,1,1-9.66l1,.1q2.81,15.36,5.6,30.71a4.7,4.7,0,0,0,1,2.46,1.11,1.11,0,0,0,1.88-.49c-.55-7.82-.61-15.64-1-23.46"/><path class="cls-18" d="M143.08,53a8.46,8.46,0,0,0,1.67.85,7.67,7.67,0,0,0,7.09-1A5.32,5.32,0,0,1,155.09,56a13.88,13.88,0,0,1,.77,4.39q.67,10.44,1.37,20.87a1.89,1.89,0,0,1-.13,1c-.35.63-1.27.76-2,.8a111.38,111.38,0,0,1-15.82-.32,1.66,1.66,0,0,1-.63-.15,1.3,1.3,0,0,1-.47-1.17,132.31,132.31,0,0,1,1.12-19.79,21.21,21.21,0,0,1,1.85-7,2.74,2.74,0,0,1,1-1.17c.46-.28.58-.72,1-.44"/><path class="cls-14" d="M152.41,45.19a8.84,8.84,0,0,0-.37-1.91c-.69-2.16-3.28-5.18-6-4a5.65,5.65,0,0,0-1.64,1.19A11.85,11.85,0,0,0,143,42a6.54,6.54,0,0,0-1.27,3.64,9.93,9.93,0,0,0,.81,3.51,6.28,6.28,0,0,0,2.73,3.68c1.9.94,4.41,0,5.71-1.65a8.33,8.33,0,0,0,1.39-6"/><path class="cls-19" d="M131,58.1a.79.79,0,0,1,0,.64,1.58,1.58,0,0,1-.77.49c-.81.31-1.61.69-2.42.92a20.77,20.77,0,0,1-1.11-3.22q-.54-1.7-1-3.36c-.31-1.08-.6-2.16-.88-3.24a16.89,16.89,0,0,1-.71-3.07,4,4,0,0,1,1.57.12l1.81.23a1.08,1.08,0,0,1,.46.12.69.69,0,0,1,.27.45L131,58.1"/><path class="cls-20" d="M130.4,57.72a.84.84,0,0,1,0,.54.93.93,0,0,1-.5.39,16.79,16.79,0,0,1-1.6.69,22.28,22.28,0,0,1-.9-2.8c-.3-1-.58-2-.86-3s-.52-1.93-.76-2.9a20.21,20.21,0,0,1-.66-2.79c.27-.14.83.12,1.11.18l1.28.29a.58.58,0,0,1,.54.56q1.16,4.4,2.33,8.81"/><g class="cls-21"><g class="cls-22"><path class="cls-23" d="M127.8,49.1a2.7,2.7,0,0,1-2.15-.22c.71,3.4,1.53,6.78,2.47,10.1l1.94-1.51a54.65,54.65,0,0,0-2-8.14.46.46,0,0,0-.1-.21s-.11,0-.16,0"/></g></g><path class="cls-24" d="M126.58,50.31s.87.25,1.22-.22"/><path class="cls-24" d="M126.58,51.15a2.59,2.59,0,0,0,.77,0c.48-.07.3,0,.5-.16a.37.37,0,0,1,.43,0"/><path class="cls-24" d="M126.58,51.85c.13,0,.45-.26.61-.16s.77.32.87.16l.22-.35"/><path class="cls-17" d="M125.56,43.08c-.11.49-.21,1-.31,1.48,0,.21.28.29.32.09.09-.5.18-1,.26-1.49,0-.18-.23-.25-.27-.08"/><path class="cls-17" d="M124.33,44l-.11-.35,0,0a2.6,2.6,0,0,1,0-.39.14.14,0,0,0-.27,0,2,2,0,0,0,0,.43.08.08,0,0,0,0,.07l.11.35c.07.18.36.11.3-.08"/><path class="cls-17" d="M123.54,44.68a4.12,4.12,0,0,0-1.64-.09c-.17,0-.19.29,0,.28a5.87,5.87,0,0,1,1.56.12c.2,0,.29-.26.08-.31"/><path class="cls-14" d="M152.08,60.27a1.3,1.3,0,0,0-.56-.34c-.85-.23-1.56.63-2,1.38a82.1,82.1,0,0,0-4.33,7.77,2.43,2.43,0,0,0-.81-.22c-3.14-.48-5.76-.8-9.24-1.18a2.87,2.87,0,0,1-.38-.08,7.6,7.6,0,0,1-2.11-1.15,2.24,2.24,0,0,0-.44-.32.53.53,0,0,0-.52,0,.32.32,0,0,0-.06.47,3.46,3.46,0,0,0-1.23-.21,1.14,1.14,0,0,0-1,.68,1.4,1.4,0,0,0,.67,1.43,7.51,7.51,0,0,0,4,1.26,18.06,18.06,0,0,0,1.82.6l5.94,1.8a9.48,9.48,0,0,0,2.87.55,3.81,3.81,0,0,0,1.53-.35c3-1.29,5.08-5.94,6-8.52.44-1.2.71-2.71-.2-3.6"/><path class="cls-25" d="M154.9,86.71c-.06-.14-.29-.08-.23.07A5,5,0,0,1,155,88c0,.17.28.17.26,0a5.08,5.08,0,0,0-.33-1.33"/><path class="cls-25" d="M155.58,91.41c0-.15-.25-.15-.24,0l.09.91c0,.16.25.16.24,0l-.09-.91"/><path class="cls-25" d="M155.52,96.37a.12.12,0,0,0-.24,0c0,.33,0,.67,0,1a.13.13,0,0,0,.25,0v-1"/><path class="cls-25" d="M155.67,102a.12.12,0,0,0-.24,0V103a.13.13,0,0,0,.25,0c0-.35,0-.71,0-1.07"/><path class="cls-25" d="M155.41,106.3c0-.13-.22-.17-.24,0a6.68,6.68,0,0,0,0,1.34c0,.16.28.16.26,0a7.17,7.17,0,0,1,0-1.31"/><path class="cls-25" d="M155.41,111.58c0-.16-.23-.16-.24,0a9.51,9.51,0,0,0,0,1.6c0,.16.26.16.25,0a8.56,8.56,0,0,1,0-1.6"/><path class="cls-25" d="M155.53,116.7c0-.16-.26-.16-.26,0l.09,1.45c0,.17.27.17.26,0l-.09-1.45"/><path class="cls-25" d="M155.91,121.21c0-.17-.25-.17-.26,0a8.2,8.2,0,0,0,.08,1.64c0,.18.29.1.26-.07a9.18,9.18,0,0,1-.08-1.57"/><path class="cls-25" d="M156.05,127c0-.16-.27-.16-.25,0l.09.84c0,.15.26.16.25,0l-.09-.84"/><path class="cls-25" d="M156.41,131.47a1.73,1.73,0,0,1-.11-.9c0-.2-.27-.28-.3-.08a1.89,1.89,0,0,0,.13,1.1c.07.17.35,0,.28-.12"/><path class="cls-25" d="M143.24,133.17c-.06-.18-.34-.1-.28.07a1.62,1.62,0,0,1,.08.65c0,.18.25.17.26,0a1.76,1.76,0,0,0-.06-.72"/><path class="cls-25" d="M143.3,129.46c0-.15-.26-.15-.25,0s.06.56.1.84.24.15.23,0-.06-.56-.08-.84"/><path class="cls-25" d="M142.9,124.39a4.57,4.57,0,0,1-.21-1c0-.17-.28-.17-.26,0a4.22,4.22,0,0,0,.23,1.11c.05.15.3.08.24-.07"/><path class="cls-25" d="M142.3,118.27c0-.17-.3-.1-.27.07a6.13,6.13,0,0,1,.11.73.12.12,0,1,0,.24,0,3.11,3.11,0,0,0-.08-.8"/><path class="cls-25" d="M141.89,113.57c0,.41,0,.81,0,1.22a.12.12,0,1,0,.24,0c0-.41,0-.81,0-1.22a.14.14,0,0,0-.27,0"/><path class="cls-25" d="M141.87,109.44c0-.19-.27-.18-.29,0a5,5,0,0,0,.07,1.34c0,.16.27.09.25-.07a6,6,0,0,1,0-1.27"/><path class="cls-25" d="M141.19,105.43c0-.18-.3-.11-.27.07a4.59,4.59,0,0,1,.05,1.11c0,.18.25.17.27,0a4.24,4.24,0,0,0-.05-1.18"/><path class="cls-25" d="M141.1,100.73c0-.18-.26-.18-.27,0a4.24,4.24,0,0,0,.07,1.33c0,.16.26.09.24-.06a5.4,5.4,0,0,1,0-1.27"/><path class="cls-25" d="M140.14,95.38v1.38a.13.13,0,0,0,.25,0c0-.46,0-.92,0-1.38a.13.13,0,0,0-.26,0"/><path class="cls-25" d="M140,90.34v1.45a.14.14,0,0,0,.27,0V90.34a.13.13,0,0,0-.27,0"/><path class="cls-25" d="M140.38,84.69a2,2,0,0,0-.24,1.06.13.13,0,0,0,.26,0,1.83,1.83,0,0,1,.21-.92.13.13,0,0,0-.23-.14"/><path class="cls-25" d="M141.11,82.78a.14.14,0,0,0,0,.28.14.14,0,0,0,0-.28"/><path class="cls-16" d="M157.25,134.12a14.2,14.2,0,0,0-3.46.83,12.74,12.74,0,0,1-2.56,2.19,2.4,2.4,0,0,0-.74.64.71.71,0,0,0,.07.89,1,1,0,0,0,.83.09,34.6,34.6,0,0,0,6.3-1.81.81.81,0,0,0,.33-.21.79.79,0,0,0,.08-.31,3.1,3.1,0,0,0-.85-2.31"/><path class="cls-13" d="M147.82,43.2a2.49,2.49,0,0,1,1.16.33,2.13,2.13,0,0,1,.71,1.46c.17,1,.34,1.93.52,2.9-.12-.47.84-.64,1.12-.22A1.14,1.14,0,0,1,151,49a4,4,0,0,0-1,1.15c-.33.88.43,2.08-.39,2.67a11.35,11.35,0,0,0,3.19-11.25,3.26,3.26,0,0,0-.93-1.64,4.46,4.46,0,0,0-2-.81,11.51,11.51,0,0,0-5.61-.3,5.39,5.39,0,0,0-3.81,3.57.68.68,0,0,0,.08.69,1,1,0,0,0,.73.19c2.18,0,4.35-.07,6.52-.07"/><g class="cls-26"><g class="cls-27"><path class="cls-28" d="M74.18,139.49l31.51-18.11c2.12-1.23,1.85-3.37-.6-4.78L74.51,98.94c-2.45-1.41-6.15-1.57-8.27-.34L34.73,116.71c-2.12,1.23-1.86,3.37.59,4.78L65.9,139.15c2.45,1.41,6.16,1.57,8.28.34"/></g></g><path class="cls-29" d="M37.24,98.42l5.45-3.15L22.6,83.68a1.05,1.05,0,0,1,0-2L43.12,69.84a3.85,3.85,0,0,1,3.44,0l20.09,11.6,5.44-3.14L52,66.7a15.89,15.89,0,0,0-14.34,0L17.16,78.55c-4,2.28-4,6,0,8.27Z"/><g class="cls-30"><g class="cls-31"><path class="cls-28" d="M28.45,99.8c0-2.91,1.77-6.29,4-7.55l36.38-21A2.53,2.53,0,0,1,71.36,71h0l43.45,25.24-42,31.67L30,103.08a1.79,1.79,0,0,1-.38-.22h0a3.7,3.7,0,0,1-1.16-3.06"/></g></g><path class="cls-29" d="M72.79,127.93,30,103.08a1.79,1.79,0,0,1-.38-.22h0a3.7,3.7,0,0,1-1.16-3.06,9.73,9.73,0,0,1,1.07-4.21l48.79,28.18Z"/><path class="cls-32" d="M75.53,127.81l36.39-21c2.18-1.26,4-4.64,4-7.55s-1.77-4.25-4-3l-36.39,21c-2.19,1.26-4,4.64-4,7.55s1.77,4.25,4,3"/><path class="cls-33" d="M81,120.73l4.37-2.53a1.86,1.86,0,0,0,.79-1.5c0-.58-.35-.85-.79-.6L81,118.63a1.86,1.86,0,0,0-.79,1.5c0,.58.35.85.79.6"/><polygon class="cls-34" points="79.23 105.66 86.97 110.66 90.75 110.05 81.53 105.59 79.23 105.66"/><path class="cls-35" d="M88.59,130.89s2.24-1.12,3.61.55,3.33,5.64,3.39,8.31-2.12,2.49-3.41,1.86-5.07-6.11-5.3-7.19a3.74,3.74,0,0,1,.63-2.81c.36-.28,1.08-.72,1.08-.72"/><path class="cls-34" d="M88.11,130.36,88,132.67a1.31,1.31,0,0,0,.66,1.2,2.59,2.59,0,0,0,1.72.27c1.68-.27,1.83-.75,2-3.06s-4.22-.72-4.22-.72"/><path class="cls-35" d="M96.77,126.45s2.23-1.13,3.6.55,3.33,5.63,3.39,8.3-2.12,2.5-3.41,1.86-5.07-6.11-5.3-7.19a3.75,3.75,0,0,1,.63-2.81c.36-.28,1.09-.71,1.09-.71"/><path class="cls-34" d="M96.28,125.91l-.11,2.31a1.31,1.31,0,0,0,.66,1.2,2.47,2.47,0,0,0,1.72.27c1.68-.27,1.83-.75,2-3.06s-4.22-.72-4.22-.72"/><path class="cls-36" d="M76.36,83.45C77,72.7,88,85,88,85l7.52,7.37,6.76,7.43a6.69,6.69,0,0,1,1.69,5.36L101.23,126a2.05,2.05,0,0,1-2.06,1.78,6.6,6.6,0,0,1-1-.09A2.54,2.54,0,0,1,95.9,125l.5-19.5L82.19,97S75.7,94.2,76.36,83.45"/><path class="cls-34" d="M91,101.85l2-.75c.05,0,3.44,3.28,3.41,4.43l-1.52.49-3.82-3.71Z"/><path class="cls-34" d="M79.23,105.66s-8.45-4.82-9.46-6.84c-.4-.8-1-1.62,1.45-2.82l11.27,8L82,106.79Z"/><path class="cls-36" d="M68.19,87.6c.71-10.74,11.64,1.58,11.64,1.58l7.52,7.37L94.11,104a6.67,6.67,0,0,1,1.69,5.36l-2.74,20.85A2.05,2.05,0,0,1,91,132a6.6,6.6,0,0,1-1-.09,2.54,2.54,0,0,1-2.26-2.7l.5-19.5L74,101.11s-6.47-3.68-5.83-13.51"/><path class="cls-18" d="M74.69,53c-8.33,3.46-8.16,8.38-8.16,8.38s1.63,18,1.07,30.08c-.23,5,26.76,5.43,22.74-8-4.75-15.84-3-28.67-5.19-30.61s-8.31-.73-10.46.16"/><path class="cls-37" d="M72,57.41c.43,1.69,2.65,2.58,4.94,2s3.81-2.44,3.37-4.13-2.65-2.59-4.94-2S71.57,55.72,72,57.41"/><path class="cls-33" d="M71.62,57.51a3.19,3.19,0,0,1,.74-2.83,5.55,5.55,0,0,1,2.92-1.79c2.5-.65,4.94.38,5.43,2.28A3.17,3.17,0,0,1,80,58a5.51,5.51,0,0,1-2.92,1.79,6.07,6.07,0,0,1-1.5.2c-1.91,0-3.54-1-3.93-2.47m3.86-3.85A4.79,4.79,0,0,0,73,55.18a2.43,2.43,0,0,0-.59,2.13c.38,1.47,2.39,2.24,4.47,1.7a4.74,4.74,0,0,0,2.5-1.52,2.42,2.42,0,0,0,.58-2.13c-.3-1.15-1.59-1.87-3.14-1.87a5.63,5.63,0,0,0-1.32.17"/><path class="cls-37" d="M78,52.67a20.74,20.74,0,0,0,.08,3c0,.83-2.86,1.6-3.61.85S74,55,73.86,52.14s4.16.53,4.16.53"/><path class="cls-38" d="M73.86,52.14a5.83,5.83,0,0,0,4.24,3.62L78,53.38Z"/><path class="cls-37" d="M71.62,45.49a6.41,6.41,0,1,0,7.81-4.6,6.42,6.42,0,0,0-7.81,4.6"/><path class="cls-38" d="M76.36,47.33a19.83,19.83,0,0,0,6,1.53c2.44,0,1.9-2,1.9-2l-7.25-1Z"/><path class="cls-39" d="M83.06,47.73A11.39,11.39,0,0,0,77.29,47a2.75,2.75,0,0,0-1.63,1,1,1,0,0,1-.5.35c-.47.11-1.26-1.87-2.19-1.92s-1.55.62-.78,1.83.5,2.59.15,2.79-4.07-2.66-.79-9.15,11.61-3,12.91-1.69c0,0,1.36,1.19,2.47.14,0,0,1.25,9.32-3.87,7.44"/><path class="cls-37" d="M71.2,74.6v4.87a2,2,0,0,0,.65,1.47l10,9.13-1.14,1.74L67.5,82.22a2.7,2.7,0,0,1-1.1-1.9l-.89-8.5Z"/><path class="cls-18" d="M67.23,59s-3,4.57-4.17,16.59c0,0,5.19,1.68,8.14.73s-4-17.32-4-17.32"/><path class="cls-40" d="M71.75,64.76A85,85,0,0,1,73,74.11,1.91,1.91,0,0,1,71.75,76Z"/><path class="cls-35" d="M74.35,96.41l2.22-.3,14.28-8.24a2,2,0,0,1,1.79.07l10.12,5.84,1.34-.17v1.33h0a.53.53,0,0,1-.31.47L87.6,104.76a2,2,0,0,1-1.79-.08l-11-6.36a.71.71,0,0,1-.44-.6h0Z"/><path class="cls-41" d="M85.09,91.19l1-.58H97.26l5.5,3.17,1.34-.17v1.33h0a.53.53,0,0,1-.31.47L87.6,104.76a1.69,1.69,0,0,1-.92.17Z"/><path class="cls-34" d="M103.51,93.68l.59-.07v1.33h0a.53.53,0,0,1-.31.47l-.28.16Z"/><path class="cls-42" d="M87.44,104.83a2.06,2.06,0,0,1-1.52-.09v-2.27h1.52Z"/><path class="cls-33" d="M87.6,103.42l16.19-9.34c.46-.27.4-.73-.12-1l-11-6.36a2,2,0,0,0-1.79-.07L74.66,96c-.46.26-.4.72.13,1l11,6.36a2,2,0,0,0,1.79.07"/><path class="cls-36" d="M87.88,102l13.46-7.78c.38-.22.33-.6-.11-.85l-5.91-3.33A1.65,1.65,0,0,0,93.84,90L80.37,97.77c-.38.22-.33.6.11.85L86.39,102a1.67,1.67,0,0,0,1.49.06"/><path class="cls-37" d="M92,86.37l.17,1.12a8.39,8.39,0,0,1-.07,2.87l-.2,1a1.37,1.37,0,0,1-1.11,1.09.77.77,0,0,1-.9-.67l-.26-2.39s-.61.8-.91.8.33-2.39,1-3.74S92,86.37,92,86.37"/><path class="cls-37" d="M86.53,68.62l1.73,3.44A6.6,6.6,0,0,1,89,74.67l.76,11.76L92,86.37l1-13.2A5.08,5.08,0,0,0,93,71.94l-1.18-6.69Z"/><path class="cls-35" d="M88.15,104.32l1.36-1.77,14.28-8.27a2,2,0,0,0,.82-1.58V81l.82-1.07-.77-.45h0a.54.54,0,0,0-.56,0L87.91,88.89a2,2,0,0,0-.83,1.59v12.73a.74.74,0,0,0,.31.68h0Z"/><path class="cls-41" d="M98,97.62,99,97l5.57-9.67V81l.82-1.07-.77-.45h0a.54.54,0,0,0-.56,0L87.91,88.89a1.69,1.69,0,0,0-.61.72Z"/><path class="cls-34" d="M105.06,80.41l.36-.47-.77-.45h0a.54.54,0,0,0-.56,0l-.29.17Z"/><path class="cls-42" d="M87.76,89a2,2,0,0,0-.67,1.36l1.58.91L89.42,90Z"/><path class="cls-43" d="M88.68,89.34,104.86,80c.46-.26.83,0,.83.63V93.33a2,2,0,0,1-.82,1.58L88.7,104.28c-.46.27-.83,0-.83-.63l0-12.73a2,2,0,0,1,.83-1.58"/><path class="cls-37" d="M80.72,91.81l.26.54a3.62,3.62,0,0,0,1.36,1.49l1.6,1a1.61,1.61,0,0,0,1.64,0l.06,0a1,1,0,0,0,.13-1.49l-1.68-1.72s1,.72,1.21.43-.91-1.25-1.76-1.29a3.36,3.36,0,0,1-1.68-.7Z"/><path class="cls-18" d="M85,52.86s6.16,6.7,8.64,12.84A12.55,12.55,0,0,1,86.36,71C81.21,72.47,85,52.86,85,52.86"/><path class="cls-40" d="M87.52,70.59l-1-9.64,2.35,9a14.26,14.26,0,0,1-1.36.61"/><path class="cls-33" d="M80.37,51.51,82,51.05a3.9,3.9,0,0,1-1.94,1.56c-1.15.32-1.33-.66-1.33-.66Z"/></g></g></svg>