<svg id="Capa_1" data-name="Capa 1" xmlns="http://www.w3.org/2000/svg" viewBox="0 0 187.38 180.03"><defs><style>.cls-1{fill:#ebebeb;}.cls-2{fill:#e0e0e0;}.cls-3{fill:#e9505b;}.cls-4{opacity:0.4;}.cls-5{fill:#fbfbfb;}.cls-6{fill:#263239;}.cls-7{fill:#455a64;}.cls-8{fill:#f8bc9e;}.cls-9{fill:#fff;}.cls-10{fill:#ec9a6e;}.cls-11{fill:none;stroke:#fff;stroke-miterlimit:10;stroke-width:0.17px;}</style></defs><title>datos personales_imagenes</title><path class="cls-1" d="M57.66,149.88c6-4.18,7.33-11.92,7.1-18.89a7.49,7.49,0,0,0-.47-3.41,2.36,2.36,0,0,0-2.88-1.22c-.86.4-1.24,1.41-1.72,2.24A6.83,6.83,0,0,1,57,131.2a2.59,2.59,0,0,1-2.39.22c-1-.55-1.12-1.94-1.11-3.1,0-2.15,0-4.31,0-6.46a10.72,10.72,0,0,0-.35-3.44A3.59,3.59,0,0,0,50.9,116a2.19,2.19,0,0,0-2.7,1.46,11.5,11.5,0,0,0,0,1.44,1.19,1.19,0,0,1-.71,1.14,1.39,1.39,0,0,1-1.27-.53,15.52,15.52,0,0,1-2.76-4.17,22,22,0,0,0-2.57-4.3,6.28,6.28,0,0,0-4.24-2.37,3.74,3.74,0,0,0-3.84,2.55c-.42,1.63.53,3.29,1.57,4.6A25.87,25.87,0,0,0,39.72,121a2.19,2.19,0,0,1,.9,1c.25.77-.48,1.54-1.24,1.79a13.46,13.46,0,0,1-2.7.31,2.59,2.59,0,0,0-2.22,1.35c-.47,1.19.52,2.42,1.49,3.24a22.26,22.26,0,0,0,6.54,3.77,7.52,7.52,0,0,1,2.43,1.18c.69.6-.38,2.72-.79,3.53s0,0-.89-.16a16,16,0,0,1-2.54-1c-1.59-.6-3.64-.49-4.66.88a3.69,3.69,0,0,0-.39,3.24,8.44,8.44,0,0,0,1.76,2.85,22.07,22.07,0,0,0,9.49,6.67c3.69,1.28,7.1,1.63,10.76.29"/><path class="cls-2" d="M57.76,155a51.67,51.67,0,0,0-1.89-9.53,103.85,103.85,0,0,0-4.12-11.15l-1.22-2.87c-.41-.94-.81-1.87-1.26-2.76a49.71,49.71,0,0,0-2.88-5c-1-1.53-2-3-2.92-4.26s-1.85-2.53-2.72-3.6a39.83,39.83,0,0,0-4.48-4.73c-.57-.52-1-.9-1.34-1.16l-.35-.29c-.08-.07-.13-.1-.13-.09l.11.11.35.3c.3.27.75.66,1.31,1.19A42.21,42.21,0,0,1,40.63,116c.86,1.07,1.76,2.28,2.69,3.6s1.93,2.74,2.91,4.27a52.51,52.51,0,0,1,2.85,4.94c.45.89.85,1.81,1.25,2.76s.81,1.89,1.23,2.86a106.62,106.62,0,0,1,4.12,11.13,51.53,51.53,0,0,1,1.93,9.49"/><path class="cls-2" d="M49.21,128.72a3,3,0,0,0,.11-.49c.06-.32.13-.79.22-1.36.16-1.15.33-2.75.51-4.51s.38-3.36.56-4.5c.09-.58.17-1,.22-1.36a2.61,2.61,0,0,0,.07-.5,1.88,1.88,0,0,0-.15.48c-.08.32-.18.78-.29,1.35-.22,1.14-.44,2.74-.62,4.5s-.33,3.32-.45,4.52l-.15,1.36A2.18,2.18,0,0,0,49.21,128.72Z"/><path class="cls-2" d="M34.34,125.94a2.66,2.66,0,0,0,.6.07c.38,0,.93.08,1.61.16,1.36.15,3.23.42,5.29.8s3.9.83,5.22,1.18c.67.17,1.2.32,1.57.43a4.11,4.11,0,0,0,.58.14,3.92,3.92,0,0,0-.56-.22c-.36-.13-.89-.31-1.55-.5-1.32-.39-3.16-.84-5.22-1.24s-4-.63-5.32-.74c-.68-.06-1.24-.08-1.62-.09A3.54,3.54,0,0,0,34.34,125.94Z"/><path class="cls-2" d="M55.68,145.24a.6.6,0,0,0,.11-.18l.25-.54c.22-.47.52-1.15.88-2,.71-1.71,1.63-4.09,2.61-6.74s1.87-5,2.55-6.74c.33-.84.6-1.52.81-2l.22-.56c0-.13.07-.19.06-.2a.76.76,0,0,0-.1.18l-.26.54c-.22.47-.52,1.16-.87,2-.72,1.7-1.64,4.08-2.61,6.73s-1.87,5-2.55,6.75c-.34.83-.61,1.52-.82,2-.08.22-.15.4-.21.55S55.68,145.24,55.68,145.24Z"/><path class="cls-2" d="M35.93,138.87a.6.6,0,0,0,.2.08l.57.2,2.11.68c1.79.58,4.25,1.41,7,2.33s5.19,1.72,7,2.27l2.14.62.59.15.2,0s-.06,0-.19-.08l-.58-.19-2.11-.69c-1.79-.58-4.24-1.41-7-2.33s-5.18-1.72-7-2.26c-.9-.28-1.63-.49-2.14-.62l-.58-.16Z"/><path class="cls-3" d="M51.32,47c-.39,13.12-1.53,62.4-1.83,75.55a3.25,3.25,0,0,0,3.17,3.34l54,1.66a3.27,3.27,0,0,0,3.37-3.2l.84-38.1,4.58-.07a2.08,2.08,0,0,0,2-2.06l.35-30.69a2.08,2.08,0,0,0-2-2.11l-4.13-.06,0-3A3.26,3.26,0,0,0,108.52,45L54.64,43.81A3.25,3.25,0,0,0,51.32,47Z"/><path class="cls-4" d="M51.32,47c-.39,13.12-1.53,62.4-1.83,75.55a3.25,3.25,0,0,0,3.17,3.34l54,1.66a3.27,3.27,0,0,0,3.37-3.2l.84-38.1,4.58-.07a2.08,2.08,0,0,0,2-2.06l.35-30.69a2.08,2.08,0,0,0-2-2.11l-4.13-.06,0-3A3.26,3.26,0,0,0,108.52,45L54.64,43.81A3.25,3.25,0,0,0,51.32,47Z"/><polygon class="cls-2" points="55.42 47.53 50.66 123.43 106.32 126.55 110.81 51.22 55.42 47.53"/><polygon class="cls-1" points="48.73 45.88 49.1 121.93 104.85 121.28 104.25 45.83 48.73 45.88"/><polygon class="cls-5" points="41.43 51.12 51.95 126.43 107.12 118.35 96.44 43.65 41.43 51.12"/><path class="cls-6" d="M41.43,51.12l55-7.54h.06v.06c3,21,6.7,46.81,10.69,74.7v.07h-.07l-.4.06L52,126.5H51.9v-.07C45.7,81.88,41.52,51.72,41.43,51.12c.09.59,4.33,30.75,10.59,75.3l-.08,0,54.76-8,.41-.06-.07.09c-4-27.89-7.66-53.72-10.66-74.71l.07.06Z"/><path class="cls-6" d="M93,68.57c0,.12-9.44,1.71-21.12,3.54s-21.17,3.23-21.19,3.1,9.43-1.71,21.12-3.54S93,68.45,93,68.57Z"/><path class="cls-6" d="M97,88.79c0,.13-9.44,1.71-21.12,3.55s-21.17,3.22-21.19,3.1,9.43-1.72,21.12-3.55S97,88.67,97,88.79Z"/><path class="cls-6" d="M95.47,82.34c0,.13-9.44,1.71-21.12,3.55S53.18,89.11,53.16,89s9.44-1.71,21.12-3.55S95.45,82.22,95.47,82.34Z"/><path class="cls-6" d="M94.11,76.06c0,.12-9.44,1.71-21.12,3.54S51.82,82.82,51.8,82.7,61.23,81,72.92,79.15,94.09,75.93,94.11,76.06Z"/><path class="cls-6" d="M97.61,96.08c0,.12-9.44,1.71-21.12,3.54s-21.17,3.22-21.19,3.1,9.43-1.71,21.12-3.55S97.59,96,97.61,96.08Z"/><path class="cls-6" d="M90.83,52.59c0,.11-6.35,1.1-14.18,2.21s-14.2,1.91-14.21,1.8,6.35-1.1,14.19-2.21S90.83,52.48,90.83,52.59Z"/><path class="cls-6" d="M91.73,56.62c0,.11-6.35,1.1-14.19,2.21s-14.19,1.91-14.2,1.8,6.35-1.1,14.19-2.21S91.72,56.51,91.73,56.62Z"/><path class="cls-6" d="M92.81,60.88c0,.11-6.35,1.1-14.18,2.21S64.43,65,64.42,64.89s6.35-1.11,14.19-2.21S92.81,60.76,92.81,60.88Z"/><path class="cls-6" d="M98.69,103.15c0,.12-9.44,1.71-21.12,3.54s-21.17,3.22-21.19,3.1,9.44-1.71,21.12-3.54S98.67,103,98.69,103.15Z"/><path class="cls-6" d="M99.77,110.22c0,.12-9.43,1.71-21.12,3.54s-21.17,3.23-21.19,3.1,9.44-1.71,21.12-3.54S99.75,110.1,99.77,110.22Z"/><path class="cls-3" d="M113.61,153l0-3.76,7-.09.09,5.51-.43,0c-2,.14-9.9.54-11.2.16C107.63,154.42,113.61,153,113.61,153Z"/><path class="cls-3" d="M118.17,154.63a2.42,2.42,0,0,1,.88-1.52,2.38,2.38,0,0,1,1.64-.53l0,2Z"/><path class="cls-3" d="M110.69,153.79s-2.09.63-1.83,1,8.32.24,11.86-.12v-.16l-9.39.2S111.1,153.8,110.69,153.79Z"/><path class="cls-6" d="M120.82,154.49h-.12l-.35,0-1.28.07c-1.08.05-2.57.1-4.23.13s-3.15,0-4.23,0l-1.28,0-.35,0h1.63c1.08,0,2.58,0,4.23,0s3.15-.06,4.23-.1l1.28,0h.35Q120.82,154.47,120.82,154.49Z"/><path class="cls-6" d="M111.33,154.8a3.36,3.36,0,0,0-.25-.61,2.87,2.87,0,0,0-.44-.48,1,1,0,0,1,.51.44A1,1,0,0,1,111.33,154.8Z"/><path class="cls-6" d="M113.39,153.72s-.12-.11-.22-.27-.18-.3-.16-.31.12.11.23.27S113.41,153.71,113.39,153.72Z"/><path class="cls-6" d="M114,153.41s-.13,0-.25-.16-.21-.21-.19-.23.12.06.25.16S114,153.39,114,153.41Z"/><path class="cls-6" d="M114.31,152.74s-.16,0-.36,0a.82.82,0,0,1-.37,0,.79.79,0,0,1,.36,0A.82.82,0,0,1,114.31,152.74Z"/><path class="cls-6" d="M114.43,152.27a.79.79,0,0,1-.41.13c-.24,0-.43,0-.42-.06a3,3,0,0,1,.41,0A2.64,2.64,0,0,1,114.43,152.27Z"/><path class="cls-6" d="M113.15,153.11a1.41,1.41,0,0,1-.46,0,2,2,0,0,1-.48-.1,1.24,1.24,0,0,1-.28-.11.27.27,0,0,1-.11-.14.16.16,0,0,1,.07-.18.83.83,0,0,1,1,.23.76.76,0,0,1,.15.3c0,.08,0,.12,0,.12a1.31,1.31,0,0,0-.21-.38.85.85,0,0,0-.39-.25.72.72,0,0,0-.54.05c-.07,0,0,.13,0,.18a1.12,1.12,0,0,0,.25.11,4.33,4.33,0,0,0,.47.11C113,153.1,113.15,153.09,113.15,153.11Z"/><path class="cls-6" d="M113,153.13s-.07-.11-.06-.31a.78.78,0,0,1,.12-.33.44.44,0,0,1,.38-.24.18.18,0,0,1,.14.21.52.52,0,0,1-.07.2,1.36,1.36,0,0,1-.22.28.61.61,0,0,1-.25.18s.09-.08.21-.22a2.26,2.26,0,0,0,.19-.28c.06-.09.1-.27,0-.29s-.22.11-.29.2a.85.85,0,0,0-.13.3A1.2,1.2,0,0,0,113,153.13Z"/><path class="cls-6" d="M120.65,152.56s-.2,0-.52,0a2.2,2.2,0,0,0-1.13.48,2.31,2.31,0,0,0-.69,1,3.24,3.24,0,0,0-.13.51s0-.06,0-.15a1.34,1.34,0,0,1,.07-.38A2.22,2.22,0,0,1,119,153a2.13,2.13,0,0,1,1.18-.47,1.58,1.58,0,0,1,.38,0A.45.45,0,0,1,120.65,152.56Z"/><path class="cls-6" d="M119.89,149.64s0,.64.08,1.44a12.78,12.78,0,0,1,0,1.45,12.94,12.94,0,0,1-.08-1.44A10.48,10.48,0,0,1,119.89,149.64Z"/><path class="cls-6" d="M117.27,154a5.64,5.64,0,0,1-2.06.05,9.44,9.44,0,0,1,1,0C116.81,154,117.27,153.93,117.27,154Z"/><path class="cls-6" d="M118.65,153.93s0,.1-.08.2-.07.21-.09.2,0-.11,0-.23S118.64,153.91,118.65,153.93Z"/><path class="cls-6" d="M119.17,153.28s0,.09-.1.16-.15.12-.16.11,0-.09.09-.17S119.15,153.26,119.17,153.28Z"/><path class="cls-6" d="M119.91,153s-.1,0-.2.06-.18.1-.2.08,0-.11.17-.16S119.91,153,119.91,153Z"/><path class="cls-6" d="M120.44,152.82s0,.06-.09.09-.12,0-.12,0,0-.06.08-.08S120.43,152.8,120.44,152.82Z"/><path class="cls-3" d="M149.63,151.05l-1.14-3.59-6.73,2.11,1.62,5.26.43-.1c1.89-.48,9.57-2.57,10.69-3.33S149.63,151.05,149.63,151.05Z"/><path class="cls-3" d="M145.8,154a2.43,2.43,0,0,0-3-1.17l.59,1.88Z"/><path class="cls-3" d="M152.65,150.9s2.19-.05,2,.36-7.83,2.81-11.31,3.57l0-.15,9-2.72S152.27,151,152.65,150.9Z"/><path class="cls-6" d="M143.24,154.71l.12,0,.34-.08,1.24-.33c1-.28,2.48-.7,4.06-1.19s3-1,4-1.33l1.21-.43.33-.12.11,0-.12,0-.33.11-1.22.41c-1,.34-2.44.81-4,1.3s-3,.91-4.05,1.21l-1.23.36-.34.1Z"/><path class="cls-6" d="M152.36,152.06a3.72,3.72,0,0,1,0-.66,2.33,2.33,0,0,1,.27-.59.94.94,0,0,0-.36.57A1,1,0,0,0,152.36,152.06Z"/><path class="cls-6" d="M150.06,151.67s.08-.14.13-.32a.81.81,0,0,0,.05-.35.86.86,0,0,0-.13.33A.77.77,0,0,0,150.06,151.67Z"/><path class="cls-6" d="M149.43,151.56s.1-.1.18-.24.14-.26.12-.27-.11.09-.19.23S149.41,151.54,149.43,151.56Z"/><path class="cls-6" d="M148.88,151a.93.93,0,0,0,.37-.07,1,1,0,0,0,.34-.14s-.17,0-.37.06A1,1,0,0,0,148.88,151Z"/><path class="cls-6" d="M148.63,150.62a.76.76,0,0,0,.42,0,.68.68,0,0,0,.39-.18,1.93,1.93,0,0,0-.41.1C148.81,150.58,148.63,150.59,148.63,150.62Z"/><path class="cls-6" d="M150.11,151a1.33,1.33,0,0,0,.43-.13,2.92,2.92,0,0,0,.43-.25,1.21,1.21,0,0,0,.23-.19.29.29,0,0,0,.06-.17.17.17,0,0,0-.12-.15.84.84,0,0,0-.91.54.88.88,0,0,0,0,.33q0,.12,0,.12a1,1,0,0,1,.08-.43.79.79,0,0,1,.29-.35.68.68,0,0,1,.53-.13c.08,0,.08.12,0,.19a1.81,1.81,0,0,1-.21.18,2.83,2.83,0,0,1-.41.25C150.27,151,150.1,151,150.11,151Z"/><path class="cls-6" d="M150.22,151a.41.41,0,0,0,0-.31.64.64,0,0,0-.22-.28.41.41,0,0,0-.42-.11.19.19,0,0,0-.08.24.61.61,0,0,0,.14.17,1.88,1.88,0,0,0,.28.2.67.67,0,0,0,.31.1,2.77,2.77,0,0,0-.28-.15,1.5,1.5,0,0,1-.26-.21c-.09-.07-.18-.22-.08-.28a.43.43,0,0,1,.35.1.93.93,0,0,1,.21.24A1.49,1.49,0,0,1,150.22,151Z"/><path class="cls-6" d="M142.8,152.82s.19-.07.5-.13a2.16,2.16,0,0,1,2.2.85,4.59,4.59,0,0,1,.28.44s0,0,0-.14a1.55,1.55,0,0,0-.19-.34,2.22,2.22,0,0,0-1-.79,2.19,2.19,0,0,0-1.27-.08,2.3,2.3,0,0,0-.37.12Z"/><path class="cls-6" d="M142.62,149.81s.15.63.38,1.4a11.45,11.45,0,0,0,.45,1.37,12.83,12.83,0,0,0-.37-1.4A11.69,11.69,0,0,0,142.62,149.81Z"/><path class="cls-6" d="M146.45,153.1a4.57,4.57,0,0,0,1-.21,4.14,4.14,0,0,0,1-.39s-.44.14-1,.3S146.44,153.07,146.45,153.1Z"/><path class="cls-6" d="M145.13,153.51s.06.08.14.16.13.17.15.16,0-.11-.09-.21S145.14,153.48,145.13,153.51Z"/><path class="cls-6" d="M144.44,153s.05.08.14.13.18.07.19.05-.06-.08-.15-.13S144.45,153,144.44,153Z"/><path class="cls-6" d="M143.64,153s.1,0,.21,0,.19,0,.21,0-.07-.09-.21-.1S143.62,153,143.64,153Z"/><path class="cls-6" d="M143.09,153s0,0,.11.05.11,0,.12,0,0,0-.12-.05S143.09,153,143.09,153Z"/><polyline class="cls-6" points="108.81 78.25 112.1 151.37 123.08 151.6 121.25 90.38 141.15 152.33 150.12 149.88 130.1 78.25"/><polygon class="cls-7" points="140.68 151.92 141.19 152.9 150.7 150.13 150.12 148.53 140.68 151.92"/><path class="cls-7" d="M149,148.17c.06,0,.15.1.19.26s0,.31,0,.33-.14-.1-.19-.27S149,148.19,149,148.17Z"/><path class="cls-7" d="M148.31,145.79c.06,0,.18.24.28.57s.13.6.08.62-.18-.23-.28-.56S148.26,145.81,148.31,145.79Z"/><path class="cls-7" d="M147.6,143.42c.06,0,.18.23.28.56s.13.61.08.63-.19-.24-.28-.57S147.54,143.44,147.6,143.42Z"/><path class="cls-7" d="M146.89,141.05c.05,0,.18.23.28.56s.13.61.07.62-.18-.23-.28-.56S146.83,141.06,146.89,141.05Z"/><path class="cls-7" d="M146.18,138.67s.18.24.28.56.13.61.07.63-.18-.24-.28-.56S146.12,138.69,146.18,138.67Z"/><path class="cls-7" d="M145.46,136.3c.06,0,.19.23.28.56s.14.61.08.62-.18-.23-.28-.56S145.41,136.31,145.46,136.3Z"/><path class="cls-7" d="M144.75,133.92c.06,0,.18.24.28.57s.13.6.08.62-.18-.24-.28-.56S144.7,133.94,144.75,133.92Z"/><path class="cls-7" d="M144,131.55c.06,0,.18.23.28.56s.13.61.08.62-.19-.23-.28-.56S144,131.56,144,131.55Z"/><path class="cls-7" d="M143.33,129.17s.18.24.28.57.13.6.07.62-.18-.23-.28-.56S143.27,129.19,143.33,129.17Z"/><path class="cls-7" d="M142.62,126.8s.18.23.28.56.13.61.07.63-.18-.24-.28-.57S142.56,126.82,142.62,126.8Z"/><path class="cls-7" d="M141.9,124.42c.06,0,.19.24.28.57s.14.6.08.62-.18-.23-.28-.56S141.85,124.44,141.9,124.42Z"/><path class="cls-7" d="M141.19,122.05c.06,0,.18.24.28.56s.13.61.08.63-.18-.24-.28-.57S141.14,122.07,141.19,122.05Z"/><path class="cls-7" d="M140.48,119.68c.06,0,.18.23.28.56s.13.61.08.62-.19-.23-.28-.56S140.42,119.69,140.48,119.68Z"/><path class="cls-7" d="M139.77,117.3s.18.24.28.56.13.61.07.63-.18-.24-.28-.56S139.71,117.32,139.77,117.3Z"/><path class="cls-7" d="M139.06,114.93c.05,0,.18.23.28.56s.13.61.07.62-.18-.23-.28-.56S139,114.94,139.06,114.93Z"/><path class="cls-7" d="M138.34,112.55c.06,0,.19.24.28.57s.14.6.08.62-.18-.24-.28-.56S138.29,112.57,138.34,112.55Z"/><path class="cls-7" d="M137.63,110.18c.06,0,.18.23.28.56s.13.61.08.63-.18-.24-.28-.57S137.58,110.2,137.63,110.18Z"/><path class="cls-7" d="M136.92,107.8c.06,0,.18.24.28.57s.13.6.08.62-.19-.23-.28-.56S136.86,107.82,136.92,107.8Z"/><path class="cls-7" d="M136.21,105.43s.18.23.28.56.13.61.07.63-.18-.24-.28-.57S136.15,105.45,136.21,105.43Z"/><path class="cls-7" d="M135.5,103.06c.05,0,.18.23.28.56s.13.61.07.62-.18-.23-.28-.56S135.44,103.07,135.5,103.06Z"/><path class="cls-7" d="M134.78,100.68c.06,0,.19.24.28.56s.14.61.08.63-.18-.24-.28-.56S134.73,100.7,134.78,100.68Z"/><path class="cls-7" d="M134.07,98.31c.06,0,.18.23.28.56s.13.61.08.62-.18-.23-.28-.56S134,98.32,134.07,98.31Z"/><path class="cls-7" d="M133.36,95.93c.06,0,.18.24.28.57s.13.6.08.62-.19-.24-.28-.56S133.3,96,133.36,95.93Z"/><path class="cls-7" d="M132.65,93.56s.18.23.28.56.13.61.07.62-.18-.23-.28-.56S132.59,93.57,132.65,93.56Z"/><path class="cls-7" d="M131.94,91.18c.05,0,.18.24.28.57s.13.6.07.62-.18-.23-.28-.56S131.88,91.2,131.94,91.18Z"/><path class="cls-7" d="M131.22,88.81c.06,0,.19.23.28.56s.14.61.08.63-.18-.24-.28-.57S131.17,88.83,131.22,88.81Z"/><path class="cls-7" d="M130.51,86.43c.06,0,.18.24.28.57s.13.6.08.62-.18-.23-.28-.56S130.46,86.45,130.51,86.43Z"/><path class="cls-7" d="M129.8,84.06c.06,0,.18.24.28.56s.13.61.08.63-.19-.24-.28-.57S129.74,84.08,129.8,84.06Z"/><path class="cls-7" d="M129.09,81.69s.18.23.28.56.13.61.07.62-.18-.23-.28-.56S129,81.7,129.09,81.69Z"/><path class="cls-7" d="M128.56,79.91c.05,0,.14.1.19.26s0,.31,0,.33-.14-.1-.19-.26S128.5,79.93,128.56,79.91Z"/><path class="cls-7" d="M121.19,151s.11.14.12.31,0,.3-.09.31-.12-.13-.13-.3S121.13,151,121.19,151Z"/><path class="cls-7" d="M121.08,148.57c.06,0,.12.27.13.6s0,.61-.08.62-.12-.27-.13-.61S121,148.57,121.08,148.57Z"/><path class="cls-7" d="M121,146.13c.06,0,.11.27.12.61s0,.61-.09.61-.11-.27-.12-.61S121,146.13,121,146.13Z"/><path class="cls-7" d="M121,143.69c.06,0,.11.27.12.61s0,.61-.09.61-.12-.27-.12-.6S120.89,143.7,121,143.69Z"/><path class="cls-7" d="M120.89,141.26c.06,0,.11.27.12.6s0,.61-.09.62-.11-.27-.12-.61S120.83,141.26,120.89,141.26Z"/><path class="cls-7" d="M120.83,138.82s.11.27.12.6,0,.62-.09.62-.11-.27-.12-.61S120.77,138.82,120.83,138.82Z"/><path class="cls-7" d="M120.75,136.38s.11.27.12.6,0,.62-.08.62-.12-.27-.13-.61S120.69,136.38,120.75,136.38Z"/><path class="cls-7" d="M120.64,133.94c.06,0,.12.27.14.61s0,.61-.09.61-.11-.27-.13-.6S120.58,134,120.64,133.94Z"/><path class="cls-7" d="M120.55,131.51c.06,0,.11.27.13.6s0,.61-.09.61-.11-.26-.13-.6S120.49,131.51,120.55,131.51Z"/><path class="cls-7" d="M120.46,129.07c.06,0,.12.27.13.61s0,.61-.09.61-.11-.27-.12-.61S120.4,129.07,120.46,129.07Z"/><path class="cls-7" d="M120.39,126.63c.06,0,.11.27.12.61s0,.61-.09.61-.11-.27-.12-.61S120.33,126.63,120.39,126.63Z"/><path class="cls-7" d="M120.32,124.19c.06,0,.12.27.13.61s0,.61-.09.61-.12-.27-.13-.6S120.27,124.2,120.32,124.19Z"/><path class="cls-7" d="M120.27,121.76c.06,0,.11.27.12.6s0,.61-.09.61-.12-.27-.12-.6S120.21,121.76,120.27,121.76Z"/><path class="cls-7" d="M120.23,119.32c.06,0,.11.27.12.61s0,.61-.1.61-.11-.27-.12-.61S120.17,119.32,120.23,119.32Z"/><path class="cls-7" d="M120.2,116.88c.06,0,.11.27.11.61s0,.61-.1.61-.1-.27-.11-.61S120.14,116.88,120.2,116.88Z"/><path class="cls-7" d="M120.18,114.44c.06,0,.11.27.11.61s0,.61-.1.61-.11-.27-.11-.61S120.13,114.44,120.18,114.44Z"/><path class="cls-7" d="M120.18,112c.06,0,.11.28.11.61s-.05.61-.11.61-.11-.27-.11-.61S120.12,112,120.18,112Z"/><path class="cls-7" d="M120.19,109.57s.1.27.1.61-.05.61-.11.61-.1-.28-.1-.61S120.13,109.57,120.19,109.57Z"/><path class="cls-7" d="M120.21,107.13c.05,0,.1.27.1.61s-.06.61-.12.61-.1-.28-.1-.61S120.15,107.13,120.21,107.13Z"/><path class="cls-7" d="M120.24,104.69c.06,0,.1.27.09.61s0,.61-.11.61-.1-.28-.1-.61S120.18,104.69,120.24,104.69Z"/><path class="cls-7" d="M120.28,102.25c.06,0,.1.28.1.61s-.06.61-.12.61-.1-.27-.1-.61S120.22,102.25,120.28,102.25Z"/><path class="cls-7" d="M120.34,99.81s.1.28.09.62-.07.6-.12.6-.1-.27-.1-.61S120.28,99.81,120.34,99.81Z"/><path class="cls-7" d="M120.42,97.37c.06,0,.1.28.08.62s-.07.61-.13.6-.09-.27-.08-.61S120.36,97.37,120.42,97.37Z"/><path class="cls-7" d="M120.56,94.94c.06,0,.09.28.07.61s-.09.61-.15.61-.09-.28-.06-.62S120.5,94.94,120.56,94.94Z"/><path class="cls-7" d="M120.79,92.51s.07.28,0,.62-.11.6-.17.59-.08-.28,0-.61S120.73,92.5,120.79,92.51Z"/><path class="cls-7" d="M121,90.7c.06,0,.09.15.06.32s-.09.29-.14.29-.09-.15-.07-.32S121,90.69,121,90.7Z"/><polygon class="cls-7" points="111.81 151.73 123.42 151.92 123.33 149.98 111.81 150.04 111.81 151.73"/><path class="cls-7" d="M119.43,79.18a2.81,2.81,0,0,1,.07.44c0,.29.06.71.11,1.23.08,1,.18,2.46.28,4,0,.79.09,1.54.13,2.23a6.87,6.87,0,0,0,.21,1.77,1.52,1.52,0,0,0,.74.89,2.83,2.83,0,0,0,.42.12l-.12,0a1.08,1.08,0,0,1-.33-.07,1.51,1.51,0,0,1-.85-.9,6.17,6.17,0,0,1-.27-1.82c0-.69-.09-1.44-.15-2.23-.09-1.58-.17-3-.22-4,0-.52,0-.94,0-1.23A1.59,1.59,0,0,1,119.43,79.18Z"/><path class="cls-7" d="M120.55,80.15s-.09.1-.1.27a.34.34,0,0,0,.09.25.27.27,0,0,0,.28,0,.27.27,0,0,0,.18-.23.36.36,0,0,0-.11-.24c-.13-.12-.26-.09-.27-.12s.14-.13.36,0a.5.5,0,0,1,.22.35.47.47,0,0,1-.81.33.5.5,0,0,1-.09-.41C120.37,80.15,120.55,80.12,120.55,80.15Z"/><path class="cls-7" d="M130.88,81.88a2,2,0,0,1-.91.35,4,4,0,0,1-2.34-.26,4,4,0,0,1-1.75-1.57,2.13,2.13,0,0,1-.35-.91s.15.34.48.83A4,4,0,0,0,130,82.08C130.53,82,130.87,81.85,130.88,81.88Z"/><path class="cls-7" d="M112.63,79.18a1.57,1.57,0,0,1,0,.79,3.24,3.24,0,0,1-1,1.64,3.14,3.14,0,0,1-1.76.76,1.45,1.45,0,0,1-.79-.07s.3,0,.77-.08a3.39,3.39,0,0,0,1.63-.77,3.3,3.3,0,0,0,1-1.52C112.58,79.48,112.59,79.17,112.63,79.18Z"/><path class="cls-8" d="M111,47.38S100.06,52,99.71,51.83s-.59-9-.59-9H93.66s-1,13.07,2.25,15.16c4.48,2.86,15.33-3.1,15.33-3.1Z"/><path class="cls-8" d="M123.58,46.17l-6.78-.54c0-.8,0-3.86,0-3.86A3.39,3.39,0,0,1,114,38.51c0-2.81.46-9.29.46-9.29h0a9.79,9.79,0,0,1,9.84,1.24l.42.32Z"/><path class="cls-6" d="M115.06,34.07a.41.41,0,1,0-.57,0A.4.4,0,0,0,115.06,34.07Z"/><path class="cls-6" d="M114.38,33.42s.32-.16.71-.16.67.2.71.15,0-.11-.14-.21a1,1,0,0,0-.57-.18,1,1,0,0,0-.57.2C114.4,33.31,114.36,33.4,114.38,33.42Z"/><path class="cls-6" d="M118.85,33.76a.41.41,0,0,0-.13.56.41.41,0,1,0,.7-.42A.41.41,0,0,0,118.85,33.76Z"/><path class="cls-6" d="M118.6,33.76c0,.05.32-.16.71-.16s.67.2.71.15,0-.11-.15-.21a.94.94,0,0,0-1.13,0C118.62,33.65,118.58,33.74,118.6,33.76Z"/><path class="cls-6" d="M117,37a1.87,1.87,0,0,0-.63-.13c-.1,0-.18,0-.19-.09a.7.7,0,0,1,.08-.29l.3-.79a10.49,10.49,0,0,0,.67-2.08,10.27,10.27,0,0,0-.87,2l-.29.79a.67.67,0,0,0-.06.43.28.28,0,0,0,.18.16.52.52,0,0,0,.17,0A1.76,1.76,0,0,0,117,37Z"/><path class="cls-9" d="M118.3,37.4a7.32,7.32,0,0,1-1.9.55,1.06,1.06,0,0,0,1.26.43C118.51,38.07,118.3,37.4,118.3,37.4Z"/><path class="cls-10" d="M116.81,41.73a6.54,6.54,0,0,0,3.68-1,3.47,3.47,0,0,1-3.69,1.77Z"/><path class="cls-8" d="M124.69,33.51c.06,0,2.1-.16,1.76,2.22s-2.63,1.25-2.62,1.18S124.69,33.51,124.69,33.51Z"/><path class="cls-10" d="M124.67,36.18s0,0,.11.07a.4.4,0,0,0,.31.06,1,1,0,0,0,.6-.86,1.38,1.38,0,0,0,0-.61.48.48,0,0,0-.27-.36.21.21,0,0,0-.26.08c0,.06,0,.11,0,.11s0,0,0-.14a.29.29,0,0,1,.12-.13.32.32,0,0,1,.24,0,.6.6,0,0,1,.38.43,1.53,1.53,0,0,1,0,.68,1.1,1.1,0,0,1-.75.94.46.46,0,0,1-.37-.11A.2.2,0,0,1,124.67,36.18Z"/><path class="cls-6" d="M114.42,29.14c.73,1.93,3.54,2.7,5.61,2.81-1-.84-.37-.66-1-1.25a8.75,8.75,0,0,0,5.74,2.13,3.78,3.78,0,0,0-2.5-4.79c-.63-.19-1.31-.21-2-.36s-1.07-.34-1.63-.42c-1.66-.25-4.35-.7-4.31,1.88"/><path class="cls-6" d="M123.54,31.78c.11.27.7,3.47.7,3.47l.72-3.08Z"/><path class="cls-8" d="M143.71,71.36a6.84,6.84,0,0,0,0-9L132.74,49.92l-2.93,8.19c.2.13,8.52,9,8.52,9l-7.15,8.92a5.09,5.09,0,0,0-.85,4.88l1.91,4.68,5.23-2.35-.4-.61h-3.92l-.24-.94h0Z"/><path class="cls-7" d="M138.53,55.16l-6.91-7h0a12.29,12.29,0,0,0-4.77-3.1,10.25,10.25,0,0,0-3-.57h0a12,12,0,0,1-7.23,0,17.34,17.34,0,0,0-5.7,1.63h0L100.6,50.36l3.31,9.12,5.53-1.86.33,8.58L108.68,79l21.42.22-.28-11.64V59.19l3.09,3Z"/><rect class="cls-8" x="92.43" y="37.12" width="2.17" height="7.53" rx="1.08" ry="1.08"/><rect class="cls-8" x="93.99" y="36.05" width="2.17" height="7.53" rx="1.08" ry="1.08"/><rect class="cls-8" x="95.59" y="35.58" width="2.17" height="7.53" rx="1.08" ry="1.08"/><rect class="cls-8" x="96.68" y="36.21" width="2.17" height="7.53" rx="1.08" ry="1.08"/><rect class="cls-8" x="97.86" y="38.43" width="1.95" height="5.99" rx="0.92" ry="0.92" transform="translate(9.04 -17.06) rotate(10.34)"/><line class="cls-11" x1="93.99" y1="37.8" x2="93.99" y2="40.89"/><line class="cls-11" x1="95.75" y1="36.45" x2="95.75" y2="39.54"/><line class="cls-11" x1="97.66" y1="36.25" x2="97.66" y2="39.34"/><line class="cls-11" x1="98.84" y1="38.49" x2="97.98" y2="41.46"/></svg>