<svg id="Capa_1" data-name="Capa 1" xmlns="http://www.w3.org/2000/svg" xmlns:xlink="http://www.w3.org/1999/xlink" viewBox="0 0 187.38 180.03"><defs><style>.cls-1{fill:#e9505b;}.cls-2{fill:#ebebeb;}.cls-3{fill:#e0e0e0;}.cls-4{fill:#e6e6e6;}.cls-5{fill:#fbfbfb;}.cls-6{opacity:0.4;}.cls-7{fill:#263239;}.cls-8{clip-path:url(#clip-path);}.cls-9{fill:#f8bc9e;}.cls-10{fill:#fff;}.cls-11{fill:#ec9a6e;}.cls-12{fill:#455a64;}</style><clipPath id="clip-path"><polygon class="cls-1" points="47.59 48.28 49.47 61.86 61.83 60.13 60.15 46.59 47.59 48.28"/></clipPath></defs><title>datos personales_imagenes</title><path class="cls-2" d="M56.87,139.2c5.81-4,7.12-11.57,6.89-18.33a7.33,7.33,0,0,0-.45-3.31,2.31,2.31,0,0,0-2.8-1.2c-.84.4-1.2,1.37-1.67,2.18a6.71,6.71,0,0,1-2.65,2.53,2.53,2.53,0,0,1-2.32.21c-1-.54-1.09-1.88-1.08-3,0-2.09,0-4.18,0-6.27a10.38,10.38,0,0,0-.34-3.34,3.49,3.49,0,0,0-2.19-2.35,2.1,2.1,0,0,0-2.61,1.41,9.32,9.32,0,0,0,0,1.4,1.18,1.18,0,0,1-.69,1.11,1.37,1.37,0,0,1-1.24-.51,15.18,15.18,0,0,1-2.68-4,20.4,20.4,0,0,0-2.5-4.17,6,6,0,0,0-4.11-2.31,3.64,3.64,0,0,0-3.73,2.48c-.41,1.58.52,3.19,1.52,4.47a25.1,25.1,0,0,0,5.22,5,2,2,0,0,1,.87.94c.25.75-.46,1.49-1.2,1.74a12.75,12.75,0,0,1-2.62.29,2.55,2.55,0,0,0-2.16,1.32c-.46,1.15.5,2.35,1.45,3.14a21.57,21.57,0,0,0,6.35,3.67,7.08,7.08,0,0,1,2.36,1.14c.67.58-.36,2.64-.77,3.43s0,0-.86-.16a15.11,15.11,0,0,1-2.47-.94c-1.54-.59-3.53-.48-4.52.85a3.56,3.56,0,0,0-.38,3.15,8.36,8.36,0,0,0,1.7,2.77,21.64,21.64,0,0,0,9.22,6.48c3.58,1.24,6.9,1.57,10.45.27"/><path class="cls-3" d="M57,144.22A49,49,0,0,0,55.13,135a103.42,103.42,0,0,0-4-10.83l-1.2-2.78c-.39-.92-.78-1.82-1.22-2.68a48.65,48.65,0,0,0-2.79-4.81c-1-1.49-1.93-2.87-2.84-4.15s-1.8-2.45-2.64-3.49a40,40,0,0,0-4.35-4.6c-.55-.5-1-.87-1.3-1.12l-.34-.28-.13-.09.11.1.34.3,1.27,1.15a43.2,43.2,0,0,1,4.29,4.63c.83,1,1.7,2.22,2.61,3.5s1.87,2.66,2.82,4.15a50.81,50.81,0,0,1,2.77,4.8c.44.86.82,1.76,1.21,2.67s.79,1.85,1.2,2.79A105.5,105.5,0,0,1,55,135a49.79,49.79,0,0,1,1.87,9.21"/><path class="cls-3" d="M48.66,118.66a1.59,1.59,0,0,0,.11-.48c.06-.31.13-.76.21-1.32.16-1.12.33-2.67.5-4.38s.37-3.26.54-4.37c.09-.56.16-1,.22-1.32a1.92,1.92,0,0,0,.06-.48,2.49,2.49,0,0,0-.14.47c-.08.3-.17.75-.28,1.31-.21,1.11-.42,2.65-.6,4.37s-.33,3.21-.44,4.38l-.15,1.33A3,3,0,0,0,48.66,118.66Z"/><path class="cls-3" d="M34.23,116a2.41,2.41,0,0,0,.57.07l1.57.15c1.32.15,3.14.41,5.14.78s3.78.8,5.07,1.15c.64.16,1.16.31,1.52.41a4.36,4.36,0,0,0,.56.14,2.28,2.28,0,0,0-.54-.22c-.35-.12-.86-.29-1.5-.48-1.28-.38-3.07-.82-5.07-1.2a48.52,48.52,0,0,0-5.16-.72c-.67-.06-1.21-.08-1.58-.09A3.29,3.29,0,0,0,34.23,116Z"/><path class="cls-3" d="M55,134.7a.76.76,0,0,0,.1-.18l.25-.52c.21-.45.5-1.12.85-1.95.69-1.65,1.58-4,2.53-6.53s1.82-4.89,2.48-6.55l.79-2c.08-.21.15-.39.21-.53s.07-.19.06-.2a.76.76,0,0,0-.1.18l-.25.52c-.21.46-.5,1.12-.85,2-.69,1.65-1.58,4-2.53,6.53S56.67,130.33,56,132c-.32.81-.59,1.47-.79,2l-.21.54A.88.88,0,0,0,55,134.7Z"/><path class="cls-3" d="M35.77,128.52l.19.08.56.18,2,.67c1.74.56,4.12,1.36,6.76,2.26s5,1.67,6.78,2.2c.87.26,1.58.47,2.07.6l.57.15a.76.76,0,0,0,.2,0l-.19-.08-.56-.19-2.05-.66c-1.73-.56-4.12-1.37-6.76-2.26s-5-1.68-6.78-2.2c-.87-.27-1.58-.47-2.07-.61l-.57-.14C35.84,128.52,35.77,128.51,35.77,128.52Z"/><polygon class="cls-4" points="127.95 40.62 112.45 78.48 140.28 89.65 155.54 52.04 127.95 40.62"/><path class="cls-4" d="M128,40.62,155.56,52l0,0v0c-4.29,10.56-9.57,23.57-15.26,37.61l0,0,0,0-.21-.08-27.62-11.1h0l0,0c9.19-22.38,15.41-37.54,15.53-37.84-.12.3-6.31,15.47-15.46,37.87l0,0,27.62,11.09.21.09-.06,0L155.51,52l0,0Z"/><polygon class="cls-5" points="125.92 37.01 110.42 74.86 138.25 86.04 153.51 48.43 125.92 37.01"/><path class="cls-2" d="M125.92,37,153.53,48.4h0v0C149.26,59,144,72,138.29,86.06l0,0h0L138,86,110.41,74.9l0,0,0,0L125.92,37c-.12.3-6.31,15.47-15.46,37.87l0,0,27.62,11.09.21.08-.06,0,15.27-37.61,0,0Z"/><path class="cls-3" d="M146.87,54.19c0,.06-4.85-1.76-10.77-4.07s-10.72-4.24-10.69-4.3,4.85,1.76,10.77,4.07S146.9,54.12,146.87,54.19Z"/><path class="cls-3" d="M145.81,57.65c0,.06-4.85-1.76-10.78-4.07s-10.71-4.23-10.69-4.3,4.85,1.76,10.78,4.07S145.83,57.59,145.81,57.65Z"/><path class="cls-3" d="M142.21,68.14c0,.07-4.85-1.76-10.78-4.07s-10.71-4.23-10.68-4.29,4.84,1.76,10.77,4.07S142.23,68.08,142.21,68.14Z"/><path class="cls-3" d="M140.51,71.69c0,.06-4.85-1.76-10.77-4.07s-10.72-4.24-10.69-4.3,4.85,1.76,10.77,4.07S140.53,71.63,140.51,71.69Z"/><path class="cls-3" d="M139.1,75.27c0,.06-4.85-1.76-10.78-4.07S117.61,67,117.64,66.9s4.84,1.76,10.77,4.07S139.12,75.21,139.1,75.27Z"/><path class="cls-3" d="M137.69,78.85c0,.06-4.85-1.76-10.78-4.07s-10.71-4.24-10.68-4.3,4.84,1.76,10.77,4.07S137.71,78.79,137.69,78.85Z"/><path class="cls-2" d="M129.14,50.49l-.36.81,11.74,4.77.36-1Z"/><path class="cls-2" d="M123.22,52l-.5,1.05,22,8.38.54-1.15Z"/><path class="cls-2" d="M122,55.53l-.51,1,22,8.38.54-1.15Z"/><path class="cls-2" d="M120.84,59.27l-.4,1.13,11,4.23.62-1.3Z"/><path class="cls-1" d="M50.71,39.33c-.38,12.74-1.48,60.59-1.78,73.36A3.18,3.18,0,0,0,52,115.94l52.45,1.6a3.18,3.18,0,0,0,3.27-3.1l.82-37,4.44-.08a2,2,0,0,0,2-2l.35-29.81a2,2,0,0,0-2-2l-4-.06,0-2.89a3.16,3.16,0,0,0-3.09-3.19L53.93,36.27A3.15,3.15,0,0,0,50.71,39.33Z"/><path class="cls-6" d="M50.71,39.33c-.38,12.74-1.48,60.59-1.78,73.36A3.18,3.18,0,0,0,52,115.94l52.45,1.6a3.18,3.18,0,0,0,3.27-3.1l.82-37,4.44-.08a2,2,0,0,0,2-2l.35-29.81a2,2,0,0,0-2-2l-4-.06,0-2.89a3.16,3.16,0,0,0-3.09-3.19L53.93,36.27A3.15,3.15,0,0,0,50.71,39.33Z"/><polygon class="cls-3" points="54.7 39.88 50.07 113.57 104.12 116.6 108.48 43.46 54.7 39.88"/><polygon class="cls-2" points="48.2 38.28 48.56 112.12 102.69 111.49 102.11 38.22 48.2 38.28"/><polygon class="cls-5" points="41.11 43.36 51.33 116.49 104.89 108.64 94.53 36.1 41.11 43.36"/><path class="cls-7" d="M41.11,43.36,94.52,36h.06v.05c2.91,20.38,6.5,45.46,10.38,72.54v.07h-.08l-.39.06-53.17,7.79h-.07v-.07c-6-43.27-10.07-72.56-10.15-73.14.09.58,4.2,29.86,10.29,73.12l-.08-.06,53.17-7.8.39-.05-.06.08C101,81.57,97.38,56.49,94.47,36.11l.07,0Z"/><path class="cls-7" d="M91.16,60.3c0,.12-9.16,1.67-20.5,3.45s-20.56,3.12-20.58,3,9.16-1.66,20.51-3.44S91.14,60.18,91.16,60.3Z"/><path class="cls-7" d="M95.09,79.94c0,.12-9.17,1.66-20.51,3.44S54,86.51,54,86.39s9.16-1.66,20.5-3.44S95.07,79.82,95.09,79.94Z"/><path class="cls-7" d="M95.66,87c0,.12-9.17,1.66-20.51,3.45s-20.55,3.12-20.57,3S63.74,91.8,75.08,90,95.64,86.89,95.66,87Z"/><path class="cls-7" d="M89.08,44.79c0,.11-6.16,1.07-13.77,2.14s-13.79,1.86-13.79,1.75,6.16-1.07,13.77-2.15S89.07,44.68,89.08,44.79Z"/><path class="cls-7" d="M90,48.7c0,.11-6.16,1.07-13.77,2.15S62.39,52.71,62.39,52.6s6.16-1.07,13.77-2.15S90,48.59,90,48.7Z"/><path class="cls-7" d="M91,52.83c0,.11-6.16,1.08-13.77,2.15s-13.79,1.86-13.79,1.75,6.16-1.07,13.77-2.15S91,52.72,91,52.83Z"/><path class="cls-7" d="M96.71,93.88c0,.12-9.16,1.66-20.51,3.44s-20.55,3.13-20.57,3,9.16-1.66,20.51-3.44S96.69,93.76,96.71,93.88Z"/><path class="cls-7" d="M97.76,100.75c0,.12-9.16,1.66-20.5,3.44s-20.56,3.13-20.58,3,9.16-1.67,20.51-3.45S97.74,100.63,97.76,100.75Z"/><path class="cls-1" d="M58.66,64.28c0,.3.18,1.6.18,1.6l22.64-3.24-.36-1.9Z"/><path class="cls-1" d="M50.77,72c0,.29.17,2.09.17,2.09l42-6.93-.2-2.28Z"/><path class="cls-1" d="M52,78.68l.17,2.09,42-6.92-.2-2.29Z"/><path class="cls-1" d="M53.7,85.52c0,.1.41,2.12.41,2.12l21-3.41-.21-2.59Z"/><polygon class="cls-7" points="47.59 48.28 49.47 61.86 61.83 60.13 60.15 46.59 47.59 48.28"/><polygon class="cls-1" points="47.59 48.28 49.47 61.86 61.83 60.13 60.15 46.59 47.59 48.28"/><g class="cls-8"><path class="cls-9" d="M53.75,59.52l3.73-1c-.06-.45-.41-2.15-.41-2.15a1.92,1.92,0,0,0,1.25-2.12c-.27-1.57-1.22-5.13-1.22-5.13h0a5.53,5.53,0,0,0-5.36,1.71l-.2.23Z"/><path class="cls-7" d="M57.24,51.89a.24.24,0,1,1,.32-.08A.24.24,0,0,1,57.24,51.89Z"/><path class="cls-7" d="M57.56,51.46s-.2-.06-.42,0-.35.18-.38.16,0-.07.06-.13a.55.55,0,0,1,.64-.11C57.53,51.4,57.57,51.44,57.56,51.46Z"/><path class="cls-7" d="M55.1,52.11a.23.23,0,0,1,.13.3.24.24,0,0,1-.3.14.23.23,0,0,1-.13-.3A.24.24,0,0,1,55.1,52.11Z"/><path class="cls-7" d="M55.24,52.09s-.2-.06-.41,0-.36.18-.38.16,0-.07.06-.13a.45.45,0,0,1,.29-.16.51.51,0,0,1,.34.05C55.22,52,55.25,52.07,55.24,52.09Z"/><path class="cls-7" d="M56.44,53.71a1.49,1.49,0,0,1,.34-.14s.1,0,.1-.07a.31.31,0,0,0-.08-.15l-.25-.41A6.33,6.33,0,0,1,56,51.85a6.13,6.13,0,0,1,.7,1l.24.41a.34.34,0,0,1,.08.23.19.19,0,0,1-.08.11l-.1,0C56.58,53.71,56.45,53.73,56.44,53.71Z"/><path class="cls-10" d="M55.78,54.08a3.92,3.92,0,0,0,1.12.11.6.6,0,0,1-.66.37C55.74,54.48,55.78,54.08,55.78,54.08Z"/><path class="cls-11" d="M57.07,56.35a3.79,3.79,0,0,1-2.16-.2,2,2,0,0,0,2.24.6Z"/><path class="cls-9" d="M51.82,52.58s-1.19.13-.75,1.42,1.59.42,1.58.39S51.82,52.58,51.82,52.58Z"/><path class="cls-11" d="M52.1,54.07s0,0-.05,0a.24.24,0,0,1-.16.06c-.16,0-.35-.18-.43-.41a.87.87,0,0,1-.05-.35.32.32,0,0,1,.11-.23.14.14,0,0,1,.16,0s0,.06,0,.06a.08.08,0,0,0,0-.08.19.19,0,0,0-.22-.06.37.37,0,0,0-.16.28.76.76,0,0,0,0,.39.62.62,0,0,0,.52.45.24.24,0,0,0,.19-.11S52.11,54.07,52.1,54.07Z"/><path class="cls-7" d="M57.09,49.07c-.21,1.16-1.69,1.88-2.83,2.15.44-.56.13-.4.4-.79a5,5,0,0,1-3,1.78,2.11,2.11,0,0,1-.17-1.65,2.14,2.14,0,0,1,1.06-1.28c.34-.17.71-.25,1.06-.4s.56-.31.86-.41c.9-.31,2.36-.84,2.6.6"/><path class="cls-7" d="M52.28,51.5c0,.16,0,2,0,2l-.72-1.65Z"/><path class="cls-12" d="M46.35,66.1l3.13-4.61h0a7,7,0,0,1,2.34-2.22,5.63,5.63,0,0,1,1.61-.63h0a6.86,6.86,0,0,0,4-.75,9.86,9.86,0,0,1,3.35.32h0L67,59.47l-.9,5.43-3.28-.46.71,4.82,1.95,7L53.56,78.67,52.5,72.14l-.86-4.7-1.42,2Z"/></g><path class="cls-1" d="M114,142.8v-2.59l4.85-.06.06,3.79-.3,0c-1.34.09-6.81.36-7.71.1S114,142.8,114,142.8Z"/><path class="cls-1" d="M117.15,143.92a1.6,1.6,0,0,1,.61-1,1.58,1.58,0,0,1,1.12-.37l0,1.36Z"/><path class="cls-1" d="M112,143.34s-1.44.44-1.25.67,5.72.17,8.16-.07v-.11l-6.46.13S112.29,143.35,112,143.34Z"/><path class="cls-7" d="M119,143.82h-.09l-.24,0-.88.05c-.74,0-1.77.07-2.91.09s-2.17,0-2.91,0l-.88,0h3.79l2.91-.07.88,0H119Z"/><path class="cls-7" d="M112.44,144a1.28,1.28,0,0,0-.47-.75.61.61,0,0,1,.35.3A.59.59,0,0,1,112.44,144Z"/><path class="cls-7" d="M113.86,143.3a.8.8,0,0,1-.15-.19.65.65,0,0,1-.11-.22.56.56,0,0,1,.16.19C113.83,143.19,113.88,143.29,113.86,143.3Z"/><path class="cls-7" d="M114.25,143.08s-.08,0-.17-.11-.14-.14-.13-.16.09,0,.17.12S114.26,143.07,114.25,143.08Z"/><path class="cls-7" d="M114.5,142.62s-.12,0-.26,0-.25,0-.25,0a.67.67,0,0,1,.25,0A.63.63,0,0,1,114.5,142.62Z"/><path class="cls-7" d="M114.58,142.3a.79.79,0,0,1-.58,0,1.72,1.72,0,0,1,.29,0C114.45,142.31,114.57,142.28,114.58,142.3Z"/><path class="cls-7" d="M113.69,142.87a.69.69,0,0,1-.31,0l-.33-.07a.77.77,0,0,1-.19-.08.18.18,0,0,1-.08-.09.13.13,0,0,1,0-.13.56.56,0,0,1,.7.16.43.43,0,0,1,.11.21.45.45,0,0,1,0,.08.71.71,0,0,0-.15-.26.53.53,0,0,0-.27-.17.44.44,0,0,0-.37,0s0,.09,0,.12a1,1,0,0,0,.18.08,2.06,2.06,0,0,0,.32.07C113.58,142.87,113.69,142.86,113.69,142.87Z"/><path class="cls-7" d="M113.61,142.89a.39.39,0,0,1,0-.22.57.57,0,0,1,.09-.22.31.31,0,0,1,.25-.17.12.12,0,0,1,.1.15.34.34,0,0,1-.05.14,1.56,1.56,0,0,1-.14.19.91.91,0,0,1-.18.13s.06-.06.15-.16a1,1,0,0,0,.12-.19c0-.07.07-.19,0-.2a.3.3,0,0,0-.21.14.42.42,0,0,0-.08.2A.84.84,0,0,0,113.61,142.89Z"/><path class="cls-7" d="M118.86,142.5s-.14,0-.36,0a1.54,1.54,0,0,0-.78.34,1.58,1.58,0,0,0-.48.69,2.91,2.91,0,0,0-.08.35s0,0,0-.1a2.24,2.24,0,0,1,0-.26,1.5,1.5,0,0,1,.49-.73,1.52,1.52,0,0,1,.81-.33,1,1,0,0,1,.26,0C118.83,142.48,118.86,142.49,118.86,142.5Z"/><path class="cls-7" d="M118.33,140.48a8.45,8.45,0,0,1,.06,1,7.8,7.8,0,0,1,0,1s0-.45,0-1A7,7,0,0,1,118.33,140.48Z"/><path class="cls-7" d="M116.53,143.45a2.55,2.55,0,0,1-.7.08,2.36,2.36,0,0,1-.71-.05h.7C116.21,143.47,116.53,143.44,116.53,143.45Z"/><path class="cls-7" d="M117.48,143.44s0,.07,0,.14-.05.14-.07.14a.22.22,0,0,1,0-.16C117.41,143.47,117.47,143.43,117.48,143.44Z"/><path class="cls-7" d="M117.84,143s0,.06-.07.11-.1.09-.11.08,0-.07.06-.12S117.82,143,117.84,143Z"/><path class="cls-7" d="M118.35,142.78s-.07,0-.14,0-.12.07-.14.06,0-.08.12-.11S118.35,142.76,118.35,142.78Z"/><path class="cls-7" d="M118.71,142.68s0,0-.06,0a.1.1,0,0,1-.09,0s0,0,.07-.06S118.7,142.66,118.71,142.68Z"/><path class="cls-1" d="M138.8,141.46,138,139l-4.63,1.45,1.12,3.62.29-.07c1.3-.33,6.59-1.77,7.36-2.29S138.8,141.46,138.8,141.46Z"/><path class="cls-1" d="M136.16,143.5a1.62,1.62,0,0,0-.89-.8,1.58,1.58,0,0,0-1.19,0l.4,1.29Z"/><path class="cls-1" d="M140.88,141.36s1.5,0,1.4.24-5.39,1.94-7.78,2.46l0-.11,6.19-1.87S140.61,141.45,140.88,141.36Z"/><path class="cls-7" d="M134.4,144h.08l.23-.06.86-.23c.72-.19,1.71-.48,2.79-.82s2.06-.66,2.77-.91l.83-.3.22-.08.08,0-.08,0-.23.07-.84.28c-.7.24-1.68.56-2.77.9s-2.07.63-2.78.83l-.85.25-.23.07Z"/><path class="cls-7" d="M140.68,142.15a1.68,1.68,0,0,1,0-.45,2.91,2.91,0,0,1,.18-.41.77.77,0,0,0-.24.4A.57.57,0,0,0,140.68,142.15Z"/><path class="cls-7" d="M139.09,141.89s.06-.1.09-.23a.56.56,0,0,0,0-.24s-.06.1-.09.23A.57.57,0,0,0,139.09,141.89Z"/><path class="cls-7" d="M138.66,141.81a.69.69,0,0,0,.13-.16.71.71,0,0,0,.08-.19s-.08.06-.13.16S138.64,141.8,138.66,141.81Z"/><path class="cls-7" d="M138.28,141.44s.12,0,.25,0a.73.73,0,0,0,.24-.1s-.12,0-.25,0A.73.73,0,0,0,138.28,141.44Z"/><path class="cls-7" d="M138.11,141.16s.13,0,.29,0a.54.54,0,0,0,.27-.12s-.13,0-.28.07S138.11,141.14,138.11,141.16Z"/><path class="cls-7" d="M139.13,141.43a.69.69,0,0,0,.29-.09,2.43,2.43,0,0,0,.3-.17.87.87,0,0,0,.15-.13.17.17,0,0,0,0-.12.11.11,0,0,0-.08-.1.58.58,0,0,0-.63.37.5.5,0,0,0,0,.23.28.28,0,0,0,0,.08,1.8,1.8,0,0,1,.06-.3.63.63,0,0,1,.2-.24.54.54,0,0,1,.37-.09c.05,0,.05.08,0,.13a1.66,1.66,0,0,1-.14.13,2.38,2.38,0,0,1-.29.17C139.24,141.39,139.12,141.42,139.13,141.43Z"/><path class="cls-7" d="M139.21,141.42a.38.38,0,0,0,0-.21.55.55,0,0,0-.15-.2.37.37,0,0,0-.3-.07.14.14,0,0,0,0,.17.36.36,0,0,0,.1.11.77.77,0,0,0,.19.14.69.69,0,0,0,.21.07s-.08,0-.19-.11a1,1,0,0,1-.18-.14c-.06-.05-.12-.15-.05-.19a.26.26,0,0,1,.23.07.47.47,0,0,1,.15.17A1.23,1.23,0,0,1,139.21,141.42Z"/><path class="cls-7" d="M134.1,142.68a2.94,2.94,0,0,1,.34-.1,1.63,1.63,0,0,1,.85.08,1.6,1.6,0,0,1,.67.51c.13.18.18.31.19.3l0-.09a.8.8,0,0,0-.13-.23,1.5,1.5,0,0,0-.68-.55,1.58,1.58,0,0,0-.87-.06,1.26,1.26,0,0,0-.26.09C134.13,142.66,134.1,142.67,134.1,142.68Z"/><path class="cls-7" d="M134,140.6a7.63,7.63,0,0,0,.25,1,7,7,0,0,0,.32.95s-.1-.43-.26-1S134,140.6,134,140.6Z"/><path class="cls-7" d="M136.61,142.86a2.16,2.16,0,0,0,.69-.14,2.2,2.2,0,0,0,.66-.27l-.67.21C136.91,142.78,136.6,142.85,136.61,142.86Z"/><path class="cls-7" d="M135.7,143.15s0,0,.1.11.08.12.1.11,0-.08-.06-.15S135.71,143.13,135.7,143.15Z"/><path class="cls-7" d="M135.22,142.83a.3.3,0,0,0,.1.09c.07,0,.12,0,.13,0s0,0-.1-.09S135.23,142.81,135.22,142.83Z"/><path class="cls-7" d="M134.67,142.79a1.24,1.24,0,0,0,.15,0c.07,0,.13,0,.14,0s-.05-.06-.14-.06S134.66,142.77,134.67,142.79Z"/><path class="cls-7" d="M134.3,142.8s0,0,.07,0,.08,0,.08,0,0,0-.07,0S134.3,142.79,134.3,142.8Z"/><polyline class="cls-7" points="110.71 91.36 112.97 141.68 120.53 141.84 119.27 99.71 132.96 142.34 139.13 140.65 125.36 91.36"/><polygon class="cls-12" points="132.64 142.05 132.99 142.73 139.53 140.82 139.13 139.73 132.64 142.05"/><path class="cls-12" d="M138.38,139.47s.1.07.13.19,0,.21,0,.22-.1-.07-.13-.18S138.34,139.49,138.38,139.47Z"/><path class="cls-12" d="M137.89,137.84s.13.16.19.39a.78.78,0,0,1,.06.43s-.13-.16-.2-.39S137.85,137.85,137.89,137.84Z"/><path class="cls-12" d="M137.4,136.21s.13.16.19.38.09.42.06.43-.13-.16-.2-.38S137.36,136.22,137.4,136.21Z"/><path class="cls-12" d="M136.91,134.57s.13.17.19.39.09.42.06.43-.13-.16-.2-.39S136.87,134.59,136.91,134.57Z"/><path class="cls-12" d="M136.42,132.94s.13.16.19.39a.78.78,0,0,1,.06.43s-.13-.17-.2-.39S136.38,133,136.42,132.94Z"/><path class="cls-12" d="M135.93,131.31s.13.16.19.38.09.42.06.43-.13-.16-.2-.38S135.89,131.32,135.93,131.31Z"/><path class="cls-12" d="M135.44,129.67s.13.16.19.39.1.42.06.43-.13-.16-.2-.39S135.4,129.68,135.44,129.67Z"/><path class="cls-12" d="M135,128s.13.16.19.39.1.41.06.43-.13-.17-.2-.39S134.91,128.05,135,128Z"/><path class="cls-12" d="M134.46,126.4s.13.17.19.39.1.42.06.43-.13-.16-.2-.39S134.42,126.42,134.46,126.4Z"/><path class="cls-12" d="M134,124.77s.13.16.19.39.1.42.06.43-.13-.16-.2-.39S133.93,124.78,134,124.77Z"/><path class="cls-12" d="M133.48,123.14s.13.16.19.38.1.42.06.43-.13-.16-.2-.38S133.44,123.15,133.48,123.14Z"/><path class="cls-12" d="M133,121.5s.13.17.19.39.1.42.06.43-.13-.16-.2-.39S133,121.51,133,121.5Z"/><path class="cls-12" d="M132.5,119.87s.13.16.19.39.1.41.06.43-.13-.17-.2-.39S132.46,119.88,132.5,119.87Z"/><path class="cls-12" d="M132,118.24s.13.16.19.38.1.42.06.43-.13-.16-.2-.38S132,118.25,132,118.24Z"/><path class="cls-12" d="M131.52,116.6s.13.16.19.39.1.42.06.43-.13-.16-.2-.39S131.48,116.61,131.52,116.6Z"/><path class="cls-12" d="M131,115s.13.16.19.39.1.41.06.43-.13-.17-.2-.39S131,115,131,115Z"/><path class="cls-12" d="M130.54,113.33s.13.17.19.39.1.42.06.43-.13-.16-.2-.39S130.5,113.35,130.54,113.33Z"/><path class="cls-12" d="M130.05,111.7s.13.16.19.39.1.42.06.43-.13-.16-.2-.39S130,111.71,130.05,111.7Z"/><path class="cls-12" d="M129.56,110.07s.13.16.19.38.1.42.06.43-.13-.16-.2-.38S129.52,110.08,129.56,110.07Z"/><path class="cls-12" d="M129.07,108.43s.13.16.19.39.1.42.06.43-.13-.16-.2-.39S129,108.44,129.07,108.43Z"/><path class="cls-12" d="M128.58,106.8s.13.16.19.39.1.41.06.43-.13-.17-.2-.39S128.54,106.81,128.58,106.8Z"/><path class="cls-12" d="M128.09,105.17s.13.16.19.38.1.42.06.43-.13-.16-.2-.38S128.05,105.18,128.09,105.17Z"/><path class="cls-12" d="M127.6,103.53s.13.16.19.39.1.42.06.43-.13-.16-.2-.39S127.56,103.54,127.6,103.53Z"/><path class="cls-12" d="M127.11,101.9s.13.16.19.39.1.41.06.42-.13-.16-.2-.38S127.07,101.91,127.11,101.9Z"/><path class="cls-12" d="M126.62,100.26s.13.17.2.39.09.42.05.43-.13-.16-.2-.39S126.58,100.28,126.62,100.26Z"/><path class="cls-12" d="M126.13,98.63s.13.16.2.39.09.42,0,.43-.13-.16-.2-.39S126.09,98.64,126.13,98.63Z"/><path class="cls-12" d="M125.64,97s.13.16.2.38.09.42,0,.43-.13-.16-.2-.38S125.6,97,125.64,97Z"/><path class="cls-12" d="M125.15,95.36s.13.16.2.39.09.42.05.43-.13-.16-.2-.39S125.11,95.37,125.15,95.36Z"/><path class="cls-12" d="M124.66,93.73s.13.16.2.39.09.41,0,.43-.13-.17-.2-.39S124.62,93.74,124.66,93.73Z"/><path class="cls-12" d="M124.3,92.51s.09.07.13.18,0,.21,0,.22-.1-.07-.13-.18S124.26,92.52,124.3,92.51Z"/><path class="cls-12" d="M119.23,141.43s.07.09.08.2,0,.22-.06.22-.08-.09-.09-.21S119.18,141.43,119.23,141.43Z"/><path class="cls-12" d="M119.16,139.75s.08.19.09.42,0,.42-.06.42-.08-.19-.09-.42S119.12,139.75,119.16,139.75Z"/><path class="cls-12" d="M119.1,138.07s.08.19.09.42,0,.42-.06.42-.08-.18-.09-.42S119.06,138.07,119.1,138.07Z"/><path class="cls-12" d="M119.06,136.4s.08.18.09.41,0,.42-.07.43-.08-.19-.08-.42S119,136.4,119.06,136.4Z"/><path class="cls-12" d="M119,134.72s.08.18.08.42,0,.42-.06.42-.08-.19-.08-.42S119,134.72,119,134.72Z"/><path class="cls-12" d="M119,133s.08.19.08.42,0,.42-.06.42-.08-.19-.08-.42S118.94,133,119,133Z"/><path class="cls-12" d="M118.92,131.36s.08.19.09.42,0,.42-.06.42-.08-.18-.09-.42S118.88,131.36,118.92,131.36Z"/><path class="cls-12" d="M118.85,129.69s.08.18.09.41,0,.42,0,.42-.08-.18-.09-.41S118.81,129.69,118.85,129.69Z"/><path class="cls-12" d="M118.79,128s.08.18.09.42,0,.42-.06.42-.08-.19-.09-.42S118.75,128,118.79,128Z"/><path class="cls-12" d="M118.73,126.33s.08.19.09.42,0,.42-.06.42-.08-.18-.09-.41S118.69,126.33,118.73,126.33Z"/><path class="cls-12" d="M118.68,124.66s.08.18.08.41,0,.42-.06.42-.08-.18-.08-.41S118.64,124.66,118.68,124.66Z"/><path class="cls-12" d="M118.63,123s.08.18.09.42,0,.42-.07.42-.07-.19-.08-.42S118.59,123,118.63,123Z"/><path class="cls-12" d="M118.6,121.3s.07.19.08.42,0,.42-.07.42-.07-.19-.08-.42S118.56,121.3,118.6,121.3Z"/><path class="cls-12" d="M118.57,119.62s.07.19.08.42,0,.42-.07.42-.07-.18-.08-.42S118.53,119.62,118.57,119.62Z"/><path class="cls-12" d="M118.55,118s.07.18.08.41,0,.42-.07.42-.08-.18-.08-.41S118.51,118,118.55,118Z"/><path class="cls-12" d="M118.54,116.27s.07.19.07.42,0,.42-.07.42-.07-.19-.07-.42S118.5,116.27,118.54,116.27Z"/><path class="cls-12" d="M118.53,114.59s.08.19.08.42,0,.42-.08.42-.07-.19-.07-.42S118.49,114.59,118.53,114.59Z"/><path class="cls-12" d="M118.54,112.91s.07.19.07.42,0,.42-.08.42-.07-.19-.07-.42S118.5,112.91,118.54,112.91Z"/><path class="cls-12" d="M118.55,111.24s.07.18.07.42,0,.41-.08.41-.07-.18-.07-.42S118.51,111.24,118.55,111.24Z"/><path class="cls-12" d="M118.57,109.56s.07.19.07.42,0,.42-.08.42-.07-.19-.07-.42S118.53,109.56,118.57,109.56Z"/><path class="cls-12" d="M118.6,107.88s.07.19.07.42,0,.42-.08.42-.07-.19-.07-.42S118.56,107.88,118.6,107.88Z"/><path class="cls-12" d="M118.64,106.2s.07.19.06.42,0,.42-.08.42-.07-.19-.06-.42S118.6,106.2,118.64,106.2Z"/><path class="cls-12" d="M118.7,104.52s.07.2.06.43-.05.41-.09.41-.07-.19-.06-.42S118.66,104.52,118.7,104.52Z"/><path class="cls-12" d="M118.8,102.85s.06.19,0,.42-.06.42-.1.42-.06-.2,0-.43S118.76,102.85,118.8,102.85Z"/><path class="cls-12" d="M119,101.18s0,.19,0,.42-.07.42-.11.41-.06-.19,0-.42S118.91,101.17,119,101.18Z"/><path class="cls-12" d="M119.11,99.93s.06.11,0,.22-.07.2-.11.2-.06-.1,0-.22S119.07,99.92,119.11,99.93Z"/><polygon class="cls-12" points="112.78 141.92 120.77 142.05 120.7 140.72 112.78 140.76 112.78 141.92"/><path class="cls-12" d="M118,92s0,.11,0,.31,0,.49.08.84c.06.71.12,1.7.19,2.78l.09,1.54a4.72,4.72,0,0,0,.15,1.22,1.07,1.07,0,0,0,.51.61,1.91,1.91,0,0,0,.29.08h-.08a.85.85,0,0,1-.24,0,1,1,0,0,1-.58-.62,4.3,4.3,0,0,1-.18-1.26l-.1-1.53c-.07-1.08-.12-2.07-.16-2.78,0-.36,0-.65,0-.85A1.23,1.23,0,0,1,118,92Z"/><path class="cls-12" d="M118.79,92.67s-.06.07-.07.19a.22.22,0,0,0,.06.17.2.2,0,0,0,.32-.13.23.23,0,0,0-.08-.16c-.09-.08-.18-.07-.18-.09s.09-.08.24,0a.3.3,0,0,1,.15.25.29.29,0,0,1-.2.29.29.29,0,0,1-.41-.35C118.66,92.67,118.79,92.65,118.79,92.67Z"/><path class="cls-12" d="M125.9,93.86a1.3,1.3,0,0,1-.63.24,2.64,2.64,0,0,1-2.81-1.26,1.24,1.24,0,0,1-.24-.62s.1.23.32.57a2.86,2.86,0,0,0,1.18,1,2.82,2.82,0,0,0,1.53.21C125.65,93.94,125.89,93.84,125.9,93.86Z"/><path class="cls-12" d="M113.34,92a1.3,1.3,0,0,1,0,.55,2.15,2.15,0,0,1-1.89,1.65,1.2,1.2,0,0,1-.54,0,4.69,4.69,0,0,1,.53-.06,2.44,2.44,0,0,0,1.13-.53,2.32,2.32,0,0,0,.67-1C113.31,92.21,113.31,92,113.34,92Z"/><path class="cls-9" d="M112.21,70.13s-7.52,3.18-7.76,3.06S104,67,104,67h-3.75s-.71,9,1.54,10.44c3.09,2,10.55-2.13,10.55-2.13Z"/><path class="cls-7" d="M87.08,59.27l-.77,3.36,3.61.86a5.63,5.63,0,0,1,3,2.43c1.48,2.11,2.05,3,2.05,3l2.5-12.36-2.72,1.93a6,6,0,0,1-1.76.85,9.43,9.43,0,0,1-2.39.45A27.19,27.19,0,0,1,87.08,59.27Z"/><path class="cls-1" d="M127.6,73.61,94.93,69l2.5-12.36,31.76,7.65a1.39,1.39,0,0,1,1.05,1.58l-1.07,6.62A1.39,1.39,0,0,1,127.6,73.61Z"/><path class="cls-1" d="M84.17,59.43a.14.14,0,0,0-.17.16,19.64,19.64,0,0,0,.54,2.17,7.24,7.24,0,0,0,1.89.37l.5-2.18Z"/><polygon class="cls-7" points="124.97 69.36 125.47 67.36 104.37 63.08 103.94 65.09 124.97 69.36"/><path class="cls-9" d="M120.87,69.29l-4.66-.37c0-.55,0-2.65,0-2.65a2.35,2.35,0,0,1-2-2.25c0-1.94.32-6.39.32-6.39h0a6.73,6.73,0,0,1,6.77.85l.29.22Z"/><path class="cls-7" d="M115,61a.27.27,0,0,0,0-.4.28.28,0,0,0-.4,0,.27.27,0,0,0,0,.39A.26.26,0,0,0,115,61Z"/><path class="cls-7" d="M114.54,60.52s.22-.11.49-.11.46.13.49.1,0-.08-.1-.14a.6.6,0,0,0-.39-.13.67.67,0,0,0-.39.14C114.56,60.44,114.53,60.51,114.54,60.52Z"/><path class="cls-7" d="M117.62,60.75a.28.28,0,0,0,.3.48.28.28,0,0,0,.09-.38A.28.28,0,0,0,117.62,60.75Z"/><path class="cls-7" d="M117.45,60.76s.22-.12.48-.12.46.14.49.1,0-.07-.1-.14a.67.67,0,0,0-.78,0C117.46,60.68,117.43,60.74,117.45,60.76Z"/><path class="cls-7" d="M116.37,63a1.33,1.33,0,0,0-.43-.09c-.07,0-.12,0-.13-.06a.45.45,0,0,1,0-.2l.21-.55a6.91,6.91,0,0,0,.46-1.42,7.06,7.06,0,0,0-.6,1.37l-.2.55a.53.53,0,0,0,0,.29.18.18,0,0,0,.12.11l.12,0A1.22,1.22,0,0,0,116.37,63Z"/><path class="cls-10" d="M117.24,63.25a4.82,4.82,0,0,1-1.31.39.74.74,0,0,0,.87.29A.57.57,0,0,0,117.24,63.25Z"/><path class="cls-11" d="M116.22,66.24a4.48,4.48,0,0,0,2.52-.72,2.38,2.38,0,0,1-2.53,1.22Z"/><path class="cls-9" d="M121.63,60.58c.05,0,1.45-.11,1.22,1.53S121,63,121,62.92,121.63,60.58,121.63,60.58Z"/><path class="cls-11" d="M121.63,62.42s0,0,.07,0a.27.27,0,0,0,.21,0,.72.72,0,0,0,.42-.58,1,1,0,0,0,0-.42.31.31,0,0,0-.18-.25.16.16,0,0,0-.18,0c0,.05,0,.08,0,.08s0,0,0-.1a.22.22,0,0,1,.08-.09.21.21,0,0,1,.16,0,.38.38,0,0,1,.26.3.92.92,0,0,1,0,.47c-.06.32-.27.61-.52.64a.26.26,0,0,1-.25-.08S121.62,62.42,121.63,62.42Z"/><path class="cls-7" d="M114.57,57.57c.5,1.33,2.44,1.86,3.86,1.94-.66-.58-.25-.46-.66-.86a6,6,0,0,0,4,1.46,2.61,2.61,0,0,0-.16-2A2.65,2.65,0,0,0,120,56.82c-.44-.13-.9-.15-1.34-.25a11.53,11.53,0,0,0-1.12-.29c-1.15-.17-3-.48-3,1.29"/><path class="cls-7" d="M120.84,59.39c.08.19.49,2.39.49,2.39l.49-2.12Z"/><path class="cls-9" d="M134.73,86.62a4.72,4.72,0,0,0,0-6.21l-7.54-8.54-2,5.63c.13.1,5.86,6.24,5.86,6.24l-4.92,6.13a3.51,3.51,0,0,0-.58,3.36l1.31,3.22,3.6-1.62-.27-.42h-2.71l-.16-.65h0Z"/><path class="cls-12" d="M131.16,75.48l-4.76-4.8h0a8.4,8.4,0,0,0-3.28-2.13,6.92,6.92,0,0,0-2.06-.4h0a8.22,8.22,0,0,1-5,0,11.73,11.73,0,0,0-3.92,1.12h0l-7.1,2.88,2.28,6.28,3.8-1.28.23,5.9-.75,8.84,14.74.15-.19-8v-5.8l2.13,2.07Z"/></svg>