<svg xmlns="http://www.w3.org/2000/svg" xmlns:xlink="http://www.w3.org/1999/xlink" viewBox="0 0 508.72 416"><defs><style>.cls-1{fill:none;}.cls-2{isolation:isolate;}.cls-3{fill:#dadada;}.cls-4{opacity:0.62;}.cls-5{fill:url(#Degradado_sin_nombre_32);}.cls-6{fill:url(#Degradado_sin_nombre_32-2);}.cls-7{fill:#67abdf;}.cls-8{fill:url(#Degradado_sin_nombre_22);}.cls-9{fill:url(#Degradado_sin_nombre_22-2);}.cls-10,.cls-15,.cls-28{fill:#fff;}.cls-11{fill:url(#Degradado_sin_nombre_22-3);}.cls-12{fill:url(#Degradado_sin_nombre_22-4);}.cls-13{fill:#059388;}.cls-14{fill:#cee8f4;}.cls-15,.cls-22{opacity:0.5;}.cls-16,.cls-22{fill:#9aa9c2;mix-blend-mode:multiply;}.cls-16,.cls-23{opacity:0.3;}.cls-17{fill:#ededed;}.cls-18{clip-path:url(#clip-path);}.cls-19{mix-blend-mode:overlay;}.cls-20{fill:url(#Безымянный_градиент_8);}.cls-21{fill:url(#Безымянный_градиент_8-2);}.cls-23{fill:#7cc2ec;}.cls-24{fill:url(#Degradado_sin_nombre_22-5);}.cls-25{fill:url(#Degradado_sin_nombre_22-6);}.cls-26{fill:url(#Degradado_sin_nombre_22-7);}.cls-27{fill:#41a0da;}.cls-28{opacity:0.7;}.cls-29{fill:url(#Degradado_sin_nombre_42);}.cls-30{fill:#fcc24f;}.cls-31{fill:url(#Degradado_sin_nombre_42-2);}.cls-32{fill:url(#Degradado_sin_nombre_42-3);}.cls-33{fill:#1e3d7b;}.cls-34{fill:#1f3159;}.cls-35{fill:url(#Degradado_sin_nombre_42-4);}.cls-36{fill:url(#Degradado_sin_nombre_42-5);}.cls-37{fill:#f19a5a;}.cls-38{fill:#e38540;}.cls-39{fill:url(#Degradado_sin_nombre_42-6);}.cls-40{fill:url(#Безымянный_градиент_12);}</style><linearGradient id="Degradado_sin_nombre_32" x1="133.03" y1="279.73" x2="129.21" y2="164.02" gradientUnits="userSpaceOnUse"><stop offset="0" stop-color="#b2cb08"/><stop offset="1" stop-color="#009753"/></linearGradient><linearGradient id="Degradado_sin_nombre_32-2" x1="167.41" y1="326.95" x2="47.81" y2="253.03" xlink:href="#Degradado_sin_nombre_32"/><linearGradient id="Degradado_sin_nombre_22" x1="109.18" y1="157.91" x2="210.78" y2="96.85" gradientUnits="userSpaceOnUse"><stop offset="0" stop-color="#db81b3"/><stop offset="1" stop-color="#7c367f"/></linearGradient><linearGradient id="Degradado_sin_nombre_22-2" x1="431.51" y1="238.18" x2="342.31" y2="338.35" xlink:href="#Degradado_sin_nombre_22"/><linearGradient id="Degradado_sin_nombre_22-3" x1="576.31" y1="69.99" x2="571.54" y2="160.63" gradientTransform="translate(-185.96 184.92) rotate(-8.49)" xlink:href="#Degradado_sin_nombre_22"/><linearGradient id="Degradado_sin_nombre_22-4" x1="576.25" y1="69.99" x2="571.47" y2="160.62" gradientTransform="matrix(0.65, 0.76, -0.76, 0.65, 101.94, -302.68)" xlink:href="#Degradado_sin_nombre_22"/><clipPath id="clip-path"><path class="cls-1" d="M263.57,142.71c12.26,0,28.37-4.61,33.34-6.13a1.15,1.15,0,0,1,1.53,1v34.1c0,26.35-34.33,47.72-34.33,47.72S229.77,198,229.77,171.69V139.17a1.15,1.15,0,0,1,1.45-1C236,139.28,251.32,142.71,263.57,142.71Z"/></clipPath><linearGradient id="Безымянный_градиент_8" x1="-814.01" y1="120.33" x2="-892.66" y2="245.92" gradientTransform="matrix(-1, 0, 0, 1, -616.4, 0)" gradientUnits="userSpaceOnUse"><stop offset="0" stop-color="#fff"/><stop offset="1" stop-color="#010101"/></linearGradient><linearGradient id="Безымянный_градиент_8-2" x1="-828.19" y1="111.44" x2="-906.84" y2="237.04" xlink:href="#Безымянный_градиент_8"/><linearGradient id="Degradado_sin_nombre_22-5" x1="291.84" y1="238.98" x2="356.58" y2="238.98" xlink:href="#Degradado_sin_nombre_22"/><linearGradient id="Degradado_sin_nombre_22-6" x1="314.56" y1="183.75" x2="328.1" y2="183.75" xlink:href="#Degradado_sin_nombre_22"/><linearGradient id="Degradado_sin_nombre_22-7" x1="314.56" y1="203.54" x2="328.1" y2="203.54" xlink:href="#Degradado_sin_nombre_22"/><linearGradient id="Degradado_sin_nombre_42" x1="337.29" y1="93.49" x2="410.39" y2="93.49" gradientUnits="userSpaceOnUse"><stop offset="0" stop-color="#ec619f"/><stop offset="1" stop-color="#004899"/></linearGradient><linearGradient id="Degradado_sin_nombre_42-2" x1="129.07" y1="239.42" x2="192.3" y2="239.42" xlink:href="#Degradado_sin_nombre_42"/><linearGradient id="Degradado_sin_nombre_42-3" x1="129.07" y1="256.82" x2="192.3" y2="256.82" xlink:href="#Degradado_sin_nombre_42"/><linearGradient id="Degradado_sin_nombre_42-4" x1="144.62" y1="264.36" x2="112.7" y2="321.91" xlink:href="#Degradado_sin_nombre_42"/><linearGradient id="Degradado_sin_nombre_42-5" x1="149.84" y1="266.64" x2="114.81" y2="329.82" xlink:href="#Degradado_sin_nombre_42"/><linearGradient id="Degradado_sin_nombre_42-6" x1="98.58" y1="279.93" x2="106.74" y2="302.56" xlink:href="#Degradado_sin_nombre_42"/><linearGradient id="Безымянный_градиент_12" x1="148.37" y1="283.9" x2="116.27" y2="323.48" gradientUnits="userSpaceOnUse"><stop offset="0" stop-color="#96d1f4"/><stop offset="1" stop-color="#2a58a4"/></linearGradient></defs><title>datos personales_imagenes</title><g class="cls-2"><g id="Capa_1" data-name="Capa 1"><path class="cls-3" d="M84.45,263.38S34.88,200.8,55.78,203.79,93.83,235.5,93.83,235.5,74,158.6,80.42,155s5-10.49-1.62-28.36,18.33-6.28,21.43,6.25,12.82,45.6,24.09,54a142.19,142.19,0,0,1,17,14.47l70.59-62.13s22-24.37,34.89-28.25-9.38,22.2-7.57,24.12,43.72-52.38,55.42-41.66-24.86,40.91-24.86,40.91l96.36,4.88s42.69-.54,48.65-10.7,15.51-10.16,21.2-10.16,22.72,4.8,9.13,12.62-14.23,9.22-11.69,19.94-10.62,31-25.72,38-35.48,32.28-35.48,32.28l.73,24.13s70.64-48.77,79.52-38-37.69,41.67-37.69,41.67.42,14.84-3.48,25.62S391,285.94,381.05,291.13s43.43-2.28,49.8-17.48,52.08-30.08,45.74-13.32-12,25.8-12,25.8,17,2,12.56,12.69S432,316.33,417.8,316.54s-261.73-1.63-261.73-1.63Z"/><polygon class="cls-3" points="172.14 276.69 177.15 311.05 368.76 316.01 373.49 275.72 172.14 276.69"/><g class="cls-4"><path class="cls-5" d="M186.36,313.53S177.35,222,128.53,194s-51.31-31.6-51.31-31.6-2.77,65,29.9,104.89,67.36,48,67.36,48Z"/><path class="cls-6" d="M167.5,316.42s-13.55-50-53.92-58.9-63.17,2.57-63.17,2.57,21.37,60.21,52.71,63.71A150.1,150.1,0,0,0,167.5,316.42Z"/><path class="cls-7" d="M170,316.77a.73.73,0,0,1-.5-.19A224.12,224.12,0,0,0,136.3,292c-18.45-11.29-46.8-24.95-77-25.84a.72.72,0,1,1,0-1.44,134.76,134.76,0,0,1,42.36,8.69,200.64,200.64,0,0,1,35.43,17.38,223.91,223.91,0,0,1,33.39,24.75.72.72,0,0,1,0,1A.7.7,0,0,1,170,316.77Z"/><path class="cls-7" d="M174.85,311.77a.72.72,0,0,1-.68-.48,547.5,547.5,0,0,0-25.86-58.6c-9.23-18-23-30.76-36.29-43.06-10.26-9.49-20-18.46-26.3-28.95a.73.73,0,0,1,.25-1,.72.72,0,0,1,1,.24c6.23,10.32,15.85,19.22,26,28.64C126.4,221,140.25,233.76,149.59,252a548.47,548.47,0,0,1,25.94,58.77.74.74,0,0,1-.44.93A1,1,0,0,1,174.85,311.77Z"/><path class="cls-7" d="M74.22,290.09a.74.74,0,0,1-.63-.36.72.72,0,0,1,.26-1A76.11,76.11,0,0,1,101.61,279a56,56,0,0,1,12.27-.57.71.71,0,0,1,.65.78.73.73,0,0,1-.79.65,56.43,56.43,0,0,0-12,.57A74.92,74.92,0,0,0,74.58,290,.68.68,0,0,1,74.22,290.09Z"/><path class="cls-7" d="M93.4,309.31a.7.7,0,0,1-.52-.22.72.72,0,0,1,0-1,61.52,61.52,0,0,1,11.12-8,81.7,81.7,0,0,1,31-10.4.73.73,0,0,1,.17,1.44,80.07,80.07,0,0,0-30.4,10.21,60,60,0,0,0-10.84,7.79A.74.74,0,0,1,93.4,309.31Z"/><path class="cls-7" d="M119.19,225.44c-1,0-2.14,0-3.31-.08a76.52,76.52,0,0,1-28.31-6.81.72.72,0,0,1,.61-1.31,75,75,0,0,0,27.76,6.68,58.72,58.72,0,0,0,12-.55.72.72,0,0,1,.84.57.73.73,0,0,1-.58.85A53.58,53.58,0,0,1,119.19,225.44Z"/><path class="cls-7" d="M130.63,251.05a118.85,118.85,0,0,1-27.91-3.66.73.73,0,0,1-.53-.87.73.73,0,0,1,.88-.53c15.07,3.66,26.07,3.9,32.64,3.46a40.88,40.88,0,0,0,10.75-1.86.73.73,0,1,1,.53,1.35c-.15.05-3.78,1.44-11.08,1.94C134.38,251,132.62,251.05,130.63,251.05Z"/></g><path class="cls-3" d="M430.43,320.2c-4.12-1.63-9-3.39-14.1-5.29-24.4-9.05-98-19.16-156.72-15.19-16.17,1.09-62.34,6.82-84.76,7.09-24.71.3-12.21,11.24-72.8,13.54s-32.83,8.43-8,14.44c16.34,4,63,2.7,110.57,1.38-1.42.18-1.25.19.84,0,7.54-.21,15.1-.42,22.55-.61,27.75.33,68,3,97.86,3.24,39.65.33,117.6,2.4,124.46-6.76C453.76,327.39,444.34,323.22,430.43,320.2Z"/><path class="cls-8" d="M178.31,146.78a42.6,42.6,0,0,0,.27-4.82c0-.85,0-1.71-.08-2.55l-7.95-2.58a34.88,34.88,0,0,0-2.82-9.53l5.28-6.49a42.43,42.43,0,0,0-4.18-6.07l-8,2.59a35,35,0,0,0-7.87-6l.45-8.36a42.33,42.33,0,0,0-6.94-2.46l-4.92,6.78a35.62,35.62,0,0,0-5.88-.49,36.11,36.11,0,0,0-4.05.23l-4.55-7a41.93,41.93,0,0,0-7.06,2.09v8.37a35.38,35.38,0,0,0-8.19,5.63l-7.8-3a42.59,42.59,0,0,0-4.5,5.84l4.93,6.76a34.72,34.72,0,0,0-3.32,9.37l-8.08,2.15a42.55,42.55,0,0,0-.27,4.81c0,.86,0,1.72.08,2.56l8,2.58a34.88,34.88,0,0,0,2.82,9.53l-5.28,6.49a43,43,0,0,0,4.18,6.07l8-2.59a35.71,35.71,0,0,0,7.87,6.05L118,181a42.33,42.33,0,0,0,6.94,2.46l4.92-6.78a35.65,35.65,0,0,0,5.89.49,36.06,36.06,0,0,0,4-.23l4.55,7a42.88,42.88,0,0,0,7.06-2.09v-8.37a35.38,35.38,0,0,0,8.19-5.63l7.8,3a42.59,42.59,0,0,0,4.5-5.84l-4.93-6.76a34.72,34.72,0,0,0,3.32-9.37Zm-42.6,12A16.82,16.82,0,1,1,152.52,142,16.82,16.82,0,0,1,135.71,158.78Z"/><path class="cls-9" d="M445.52,300.84a55.06,55.06,0,0,0,3-5.15q.7-1.41,1.32-2.85l-7.33-7.21a43.41,43.41,0,0,0,2.15-12l9.37-4.24a53.18,53.18,0,0,0-1.25-9l-10.18-1.52a43.64,43.64,0,0,0-5.33-11l5.1-9a53,53,0,0,0-6.28-6.53l-9.14,4.75a43.38,43.38,0,0,0-10.78-5.75L415,221.16a52,52,0,0,0-8.92-1.6l-4.6,9.22a43.27,43.27,0,0,0-12.1,1.68l-6.92-7.61a52.48,52.48,0,0,0-8.16,4L376,237a43.06,43.06,0,0,0-8.8,8.48l-10.07-2.08a52.75,52.75,0,0,0-2.95,5.14c-.47.95-.91,1.9-1.32,2.86l7.33,7.21a42.92,42.92,0,0,0-2.15,12l-9.37,4.23a53,53,0,0,0,1.25,9l10.18,1.53a43.13,43.13,0,0,0,5.33,11l-5.1,8.94a52.26,52.26,0,0,0,6.28,6.53l9.14-4.75a42.36,42.36,0,0,0,6.2,3.78,43.41,43.41,0,0,0,4.57,2L387.64,323a52.83,52.83,0,0,0,8.92,1.59l4.59-9.21a43.6,43.6,0,0,0,12.1-1.69l6.93,7.61a53.34,53.34,0,0,0,8.16-3.95l-1.7-10.15a42.85,42.85,0,0,0,8.81-8.48Zm-53.46-10.25a20.68,20.68,0,1,1,27.75-9.24A20.68,20.68,0,0,1,392.06,290.59Z"/><path class="cls-10" d="M416.33,306a.85.85,0,0,1-.34-1.63A35,35,0,0,0,436.54,277a.85.85,0,1,1,1.68.23,36.57,36.57,0,0,1-21.55,28.65A.83.83,0,0,1,416.33,306Z"/><path class="cls-10" d="M435.5,261a.85.85,0,0,1-.8-.56,34.75,34.75,0,0,0-7.42-12,.85.85,0,0,1,1.23-1.17,36.29,36.29,0,0,1,7.79,12.56.86.86,0,0,1-.51,1.1A1,1,0,0,1,435.5,261Z"/><path class="cls-10" d="M418,241.35a.85.85,0,0,1-.38-.09,35,35,0,0,0-8.13-2.89.85.85,0,0,1-.65-1,.86.86,0,0,1,1-.65,36.84,36.84,0,0,1,8.52,3,.85.85,0,0,1-.38,1.61Z"/><path class="cls-11" d="M387.25,233.35a33.58,33.58,0,0,0,3.61,1c.66.13,1.31.24,2,.34L396,229a27.12,27.12,0,0,0,7.66-.67l4.11,5A33.82,33.82,0,0,0,413,231.1l-.74-6.43a27.36,27.36,0,0,0,5.81-5l6.27,1.63a33.36,33.36,0,0,0,2.94-4.89l-4.39-4.77a27.47,27.47,0,0,0,1.29-4.39,27.86,27.86,0,0,0,.44-3.1l6-2.37a32.51,32.51,0,0,0-.5-5.68l-6.35-1.28a27.19,27.19,0,0,0-3-7.08l3.48-5.46a33.13,33.13,0,0,0-3.73-4.31l-5.89,2.7a27.14,27.14,0,0,0-6.6-4l-.38-6.46a33,33,0,0,0-3.61-.95q-1-.19-2-.33L399,174.55a27.19,27.19,0,0,0-7.67.67l-4.11-5a33.23,33.23,0,0,0-5.25,2.23l.74,6.43a27.59,27.59,0,0,0-5.8,5l-6.28-1.63a33.31,33.31,0,0,0-2.93,4.89l4.38,4.77a27.44,27.44,0,0,0-1.28,4.39,27.9,27.9,0,0,0-.45,3.1l-6,2.37a32.51,32.51,0,0,0,.49,5.68l6.35,1.29a27.15,27.15,0,0,0,3,7.07l-3.49,5.46a33.31,33.31,0,0,0,3.74,4.31l5.89-2.69a27,27,0,0,0,6.59,4Zm-2.52-34.17a13,13,0,1,1,10.16,15.35A13,13,0,0,1,384.73,199.18Z"/><circle class="cls-12" cx="397.29" cy="200.5" r="7.82" transform="translate(16.96 431.56) rotate(-58.06)"/><path class="cls-13" d="M305.36,311.33V275.72h-82.5v35.61H196a9,9,0,0,0-9,9v2.19a2.93,2.93,0,0,0,2.93,2.93H338.26a2.94,2.94,0,0,0,2.94-2.93v-2.19a9,9,0,0,0-9-9Z"/><polygon class="cls-13" points="222.86 300.13 305.36 293.77 305.36 278.77 222.86 279.64 222.86 300.13"/><polygon class="cls-13" points="305.36 305.49 222.86 311.33 305.36 311.33 305.36 305.49"/><rect class="cls-13" x="135.19" y="126.68" width="257.84" height="157.18" rx="4.42" ry="4.42"/><rect class="cls-14" x="142.43" y="133.08" width="243.35" height="134.87" rx="3.97" ry="3.97"/><rect class="cls-15" x="253.29" y="274.62" width="21.64" height="4.15" rx="1.8" ry="1.8"/><rect class="cls-15" x="274.92" y="313.87" width="60.38" height="4.28" rx="1.91" ry="1.91"/><path class="cls-16" d="M266.36,145.79c12.9,0,29.85-4.85,35.09-6.45a1.21,1.21,0,0,1,1.61,1.06v35.89c0,27.73-36.14,50.2-36.14,50.2s-36.14-22.47-36.14-50.2V142.07a1.21,1.21,0,0,1,1.54-1.09C237.3,142.17,253.46,145.79,266.36,145.79Z"/><path class="cls-13" d="M263.57,142.71c12.26,0,28.37-4.61,33.34-6.13a1.15,1.15,0,0,1,1.53,1v34.1c0,26.35-34.33,47.72-34.33,47.72S229.77,198,229.77,171.69V139.17a1.15,1.15,0,0,1,1.45-1C236,139.28,251.32,142.71,263.57,142.71Z"/><path class="cls-13" d="M264.11,148.32c9.19,0,20.63-3,26.37-5.39a2.58,2.58,0,0,1,3.66,2.16v27.36c0,23.05-30,41.73-30,41.73s-30-18.68-30-41.73V146.28a2.56,2.56,0,0,1,3.49-2.22A96.56,96.56,0,0,0,264.11,148.32Z"/><path class="cls-17" d="M264.42,155.75V206.9s-23.88-15.22-23.88-33.3V152.87a1.87,1.87,0,0,1,2.55-1.62C247.55,152.8,257,155.75,264.42,155.75Z"/><path class="cls-17" d="M264.42,155.75V206.9s24.74-15.22,24.74-33.3V152.82a1.87,1.87,0,0,0-2.52-1.63C282,152.73,271.94,155.75,264.42,155.75Z"/><path class="cls-13" d="M255,168.06c.38.27.73.54,1.08.83s.7.56,1,.88.66.61,1,.93l.49.48.46.49c.31.33.61.67.91,1s.57.69.86,1,.56.7.83,1.06l.41.54c.13.18.27.36.39.55l.77,1.11.72,1.15c.24.38.46.77.69,1.16l.33.59c.11.2.21.4.31.6s.21.4.31.61l.29.61q.28.62.54,1.26c.17.42.33.85.48,1.28.08.22.15.44.22.67a3.38,3.38,0,0,1,.11.34l.11.37-4.73-.28a4.32,4.32,0,0,1,.27-.48l.27-.46.54-.9,1.12-1.78,2.24-3.52c.75-1.17,1.52-2.32,2.33-3.46s1.64-2.24,2.49-3.34,1.75-2.17,2.67-3.21,1.88-2.06,2.87-3a41.16,41.16,0,0,1,3.13-2.78c.54-.44,1.1-.85,1.67-1.25s1.16-.77,1.76-1.11a.26.26,0,0,1,.29.42c-.51.44-1,.9-1.49,1.37s-.95,1-1.4,1.46-.89,1-1.31,1.53-.84,1.05-1.25,1.59c-.81,1.07-1.58,2.17-2.32,3.29l-1.09,1.7-1.05,1.73c-.69,1.15-1.35,2.32-2,3.5s-1.27,2.37-1.89,3.56c-.3.6-.6,1.2-.89,1.81s-.57,1.21-.84,1.83-.52,1.24-.78,1.86l-.37.92-.35.91L265.07,193l-2.57-5.84-1-2.2c-.09-.19-.17-.38-.25-.57l-.25-.57-.5-1.15-2-4.67-.51-1.17-.24-.59-.26-.59c-.16-.4-.34-.79-.5-1.19s-.34-.79-.5-1.2l-.5-1.2c-.17-.4-.33-.81-.49-1.22s-.34-.82-.5-1.24-.32-.85-.46-1.28a.28.28,0,0,1,.17-.34A.25.25,0,0,1,255,168.06Z"/><g class="cls-18"><g class="cls-19"><path class="cls-20" d="M239.22,171.36c3.17,10.33,5,26.65,5.8,36.29-8.85-8.26-17.64-18-18.09-23.08-.55-6.37-1.64-24.72-1.45-37.48C229.14,151.44,235.88,160.45,239.22,171.36Z"/><path class="cls-21" d="M255.8,192c-2.6-12-10.07-42.13-30.06-51.46.29-4,.84-6.53,1.76-6.59,3.66-.22,8,1.89,8,1.89,19.53-.11,29.07,29.52,30,34.62s-.11,50.19-2,51.4c-.41.26-2.34-.89-5.11-3C258.27,213.5,257.87,201.61,255.8,192Z"/></g></g><path class="cls-22" d="M393,155.18h-62.8a1.81,1.81,0,0,0-1.8,1.8v9.17a1.81,1.81,0,0,0,1.8,1.8H393Z"/><rect class="cls-13" x="324.21" y="150.98" width="89.1" height="12.77" rx="1.8" ry="1.8"/><rect class="cls-10" x="326.54" y="153.28" width="84.44" height="8.17" rx="1.4" ry="1.4"/><path class="cls-13" d="M336.13,159.89a.68.68,0,0,1-.68-.68v-4.06a.68.68,0,0,1,.68-.67.67.67,0,0,1,.67.67v4.06A.67.67,0,0,1,336.13,159.89Z"/><path class="cls-13" d="M338.39,158.67a.68.68,0,0,1-.94.19l-3.39-2.23a.66.66,0,0,1-.19-.93.68.68,0,0,1,.93-.2l3.4,2.23A.69.69,0,0,1,338.39,158.67Z"/><path class="cls-13" d="M333.9,158.72a.69.69,0,0,1,.17-.94l3.34-2.31a.68.68,0,0,1,.77,1.12l-3.34,2.31A.68.68,0,0,1,333.9,158.72Z"/><path class="cls-13" d="M345.64,159.89a.68.68,0,0,1-.68-.68v-4.06a.68.68,0,0,1,.68-.67.67.67,0,0,1,.67.67v4.06A.67.67,0,0,1,345.64,159.89Z"/><path class="cls-13" d="M347.9,158.67a.68.68,0,0,1-.94.19l-3.39-2.23a.66.66,0,0,1-.19-.93.68.68,0,0,1,.93-.2l3.4,2.23A.69.69,0,0,1,347.9,158.67Z"/><path class="cls-13" d="M343.41,158.72a.69.69,0,0,1,.17-.94l3.34-2.31a.68.68,0,0,1,.77,1.12l-3.34,2.31A.68.68,0,0,1,343.41,158.72Z"/><path class="cls-13" d="M355.15,159.89a.68.68,0,0,1-.68-.68v-4.06a.68.68,0,0,1,.68-.67.67.67,0,0,1,.67.67v4.06A.67.67,0,0,1,355.15,159.89Z"/><path class="cls-13" d="M357.41,158.67a.68.68,0,0,1-.94.19l-3.39-2.23a.66.66,0,0,1-.19-.93.68.68,0,0,1,.93-.2l3.4,2.23A.69.69,0,0,1,357.41,158.67Z"/><path class="cls-13" d="M352.92,158.72a.69.69,0,0,1,.17-.94l3.34-2.31a.68.68,0,0,1,.77,1.12l-3.34,2.31A.68.68,0,0,1,352.92,158.72Z"/><path class="cls-13" d="M364.66,159.89a.68.68,0,0,1-.68-.68v-4.06a.68.68,0,0,1,.68-.67.67.67,0,0,1,.67.67v4.06A.67.67,0,0,1,364.66,159.89Z"/><path class="cls-13" d="M366.92,158.67a.68.68,0,0,1-.94.19l-3.39-2.23a.66.66,0,0,1-.19-.93.68.68,0,0,1,.93-.2l3.4,2.23A.69.69,0,0,1,366.92,158.67Z"/><path class="cls-13" d="M362.43,158.72a.69.69,0,0,1,.17-.94l3.34-2.31a.68.68,0,0,1,.77,1.12l-3.34,2.31A.68.68,0,0,1,362.43,158.72Z"/><path class="cls-13" d="M374.17,159.89a.68.68,0,0,1-.68-.68v-4.06a.68.68,0,0,1,1.36,0v4.06A.68.68,0,0,1,374.17,159.89Z"/><path class="cls-13" d="M376.43,158.67a.68.68,0,0,1-.94.19l-3.39-2.23a.66.66,0,0,1-.19-.93.68.68,0,0,1,.93-.2l3.4,2.23A.69.69,0,0,1,376.43,158.67Z"/><path class="cls-13" d="M371.94,158.72a.69.69,0,0,1,.17-.94l3.34-2.31a.68.68,0,0,1,.77,1.12l-3.34,2.31A.68.68,0,0,1,371.94,158.72Z"/><rect class="cls-13" x="381.23" y="158.54" width="6.59" height="0.9" rx="0.44" ry="0.44"/><rect class="cls-13" x="390.94" y="158.54" width="6.59" height="0.9" rx="0.44" ry="0.44"/><rect class="cls-13" x="400.19" y="158.54" width="6.59" height="0.9" rx="0.44" ry="0.44"/><rect class="cls-10" x="161.57" y="181.51" width="32.82" height="32.82" rx="1.81" ry="1.81" transform="translate(-87.82 183.82) rotate(-45)"/><rect class="cls-3" x="162.71" y="182.64" width="30.54" height="30.54" rx="1.68" ry="1.68" transform="translate(-87.82 183.82) rotate(-45)"/><rect class="cls-10" x="155.62" y="196.03" width="44.73" height="27.96" rx="1.68" ry="1.68"/><path class="cls-23" d="M200.34,197.58c0-.85.07-.85-.78-1.39a2.28,2.28,0,0,0-.89-.17c-44.37,0-41.66-.08-42.27.17-.83.53-.78.5-.78,1.39.19.39-1.25-.61,21.08,13.65a2.6,2.6,0,0,0,2.56,0C201.59,197,200.15,198,200.34,197.58Z"/><ellipse class="cls-13" cx="187.21" cy="175.64" rx="9.3" ry="6.3"/><rect class="cls-13" x="181.71" y="177.89" width="11" height="7.27" rx="1.68" ry="1.68"/><path class="cls-13" d="M186.28,174.67c0,1.54-1,4.34-2.29,4.34s-2.27-1.27-2.7-2.75A2.43,2.43,0,0,1,183.2,173C184.65,172.53,186.28,173.13,186.28,174.67Z"/><path class="cls-13" d="M187.85,174.67c0,1.54,1,4.34,2.28,4.34s2.27-1.27,2.7-2.75a2.43,2.43,0,0,0-1.91-3.31C189.48,172.53,187.85,173.13,187.85,174.67Z"/><path class="cls-13" d="M187.21,178.26c1,0,1.35,3.41.88,3.55a2.8,2.8,0,0,1-1.81,0C185.9,181.53,186.46,178.26,187.21,178.26Z"/><ellipse class="cls-13" cx="203.62" cy="153.78" rx="5.21" ry="3.53"/><rect class="cls-13" x="200.54" y="155.04" width="6.16" height="4.07" rx="0.94" ry="0.94"/><path class="cls-13" d="M203.1,153.23c0,.87-.58,2.43-1.28,2.43s-1.28-.7-1.52-1.54a1.36,1.36,0,0,1,1.07-1.85C202.18,152,203.1,152.37,203.1,153.23Z"/><path class="cls-13" d="M204,153.23c0,.87.57,2.43,1.28,2.43s1.27-.7,1.51-1.54a1.36,1.36,0,0,0-1.07-1.85C204.89,152,204,152.37,204,153.23Z"/><path class="cls-13" d="M203.62,155.25c.57,0,.76,1.9.49,2a1.46,1.46,0,0,1-1,0C202.89,157.07,203.2,155.25,203.62,155.25Z"/><ellipse class="cls-13" cx="169.36" cy="189.62" rx="5.21" ry="3.53"/><rect class="cls-13" x="166.28" y="190.88" width="6.16" height="4.07" rx="0.94" ry="0.94"/><path class="cls-13" d="M168.84,189.08c0,.86-.58,2.43-1.28,2.43s-1.28-.71-1.52-1.54a1.36,1.36,0,0,1,1.07-1.85C167.92,187.88,168.84,188.21,168.84,189.08Z"/><path class="cls-13" d="M169.72,189.08c0,.86.57,2.43,1.27,2.43s1.28-.71,1.52-1.54a1.36,1.36,0,0,0-1.07-1.85C170.63,187.88,169.72,188.21,169.72,189.08Z"/><path class="cls-13" d="M169.36,191.09c.57,0,.75,1.91.49,2a1.58,1.58,0,0,1-1,0C168.63,192.92,168.94,191.09,169.36,191.09Z"/><path class="cls-13" d="M196.67,217.76H181.59a.45.45,0,0,1-.45-.45.46.46,0,0,1,.45-.46h15.08a.47.47,0,0,1,.46.46A.46.46,0,0,1,196.67,217.76Z"/><path class="cls-13" d="M196.67,219.72H181.59a.45.45,0,0,1-.45-.45.46.46,0,0,1,.45-.46h15.08a.47.47,0,0,1,.46.46A.46.46,0,0,1,196.67,219.72Z"/><rect class="cls-24" x="291.84" y="224.35" width="64.75" height="29.26" rx="1.23" ry="1.23"/><rect class="cls-10" x="293.61" y="232.04" width="61.21" height="20.2" rx="0.99" ry="0.99"/><rect class="cls-10" x="294.5" y="226.5" width="2.54" height="2.28" rx="0.55" ry="0.55"/><rect class="cls-10" x="299.12" y="226.5" width="2.54" height="2.28" rx="0.55" ry="0.55"/><rect class="cls-10" x="303.73" y="226.5" width="2.54" height="2.28" rx="0.55" ry="0.55"/><path class="cls-3" d="M352.32,236.46H320a1,1,0,1,1,0-1.93h32.37a1,1,0,1,1,0,1.93Z"/><path class="cls-3" d="M328,251.41H295.6a1,1,0,0,1,0-1.94H328a1,1,0,0,1,0,1.94Z"/><rect class="cls-3" x="330.25" y="249.47" width="4.01" height="1.94" rx="0.33" ry="0.33"/><rect class="cls-3" x="335.3" y="249.47" width="4.01" height="1.94" rx="0.33" ry="0.33"/><path class="cls-3" d="M352.63,240.68H299a.66.66,0,0,1-.66-.65.67.67,0,0,1,.66-.66h53.61a.67.67,0,0,1,.66.66A.66.66,0,0,1,352.63,240.68Z"/><path class="cls-3" d="M352.63,243.52H299a.66.66,0,1,1,0-1.31h53.61a.66.66,0,1,1,0,1.31Z"/><path class="cls-13" d="M321,191.75h-4.66a3.64,3.64,0,0,1-3.64-3.64v-4.66a3.65,3.65,0,0,1,3.64-3.64H321a3.65,3.65,0,0,1,3.64,3.64v4.66A3.65,3.65,0,0,1,321,191.75Zm-4.66-9.9a1.6,1.6,0,0,0-1.6,1.6v4.66a1.6,1.6,0,0,0,1.6,1.6H321a1.6,1.6,0,0,0,1.6-1.6v-4.66a1.6,1.6,0,0,0-1.6-1.6Z"/><path class="cls-13" d="M321,211.72h-4.66a3.82,3.82,0,0,1-3.81-3.81v-4.66a3.82,3.82,0,0,1,3.81-3.81H321a3.82,3.82,0,0,1,3.81,3.81v4.66A3.82,3.82,0,0,1,321,211.72Zm-4.66-9.9a1.43,1.43,0,0,0-1.43,1.43v4.66a1.43,1.43,0,0,0,1.43,1.43H321a1.44,1.44,0,0,0,1.43-1.43v-4.66a1.44,1.44,0,0,0-1.43-1.43Z"/><path class="cls-25" d="M318.93,189.13h-.05a1,1,0,0,1-.76-.4l-3.35-4.36a1,1,0,0,1,1.62-1.25l2.61,3.41,7.33-7.85a1,1,0,0,1,1.45-.05,1,1,0,0,1,.05,1.44l-8.16,8.74A1,1,0,0,1,318.93,189.13Z"/><path class="cls-26" d="M318.93,208.93h-.05a1,1,0,0,1-.76-.4l-3.35-4.36a1,1,0,1,1,1.62-1.25l2.61,3.41,7.33-7.85a1,1,0,0,1,1.45,0,1,1,0,0,1,.05,1.44l-8.16,8.74A1,1,0,0,1,318.93,208.93Z"/><path class="cls-13" d="M332.4,184.7h35.19a1.12,1.12,0,0,0,0-2.23H332.4a1.12,1.12,0,0,0,0,2.23Z"/><path class="cls-13" d="M332.4,189.06h26.17a1.12,1.12,0,1,0,0-2.23H332.4a1.12,1.12,0,0,0,0,2.23Z"/><path class="cls-13" d="M332.4,204.52h35.19a1.12,1.12,0,0,0,0-2.23H332.4a1.12,1.12,0,0,0,0,2.23Z"/><path class="cls-13" d="M332.4,208.88h30.83a1.12,1.12,0,1,0,0-2.23H332.4a1.12,1.12,0,0,0,0,2.23Z"/><rect class="cls-27" x="219.96" y="227.64" width="39.65" height="22.67" rx="0.65" ry="0.65"/><rect class="cls-10" x="220.83" y="228.64" width="37.91" height="20.67" rx="0.61" ry="0.61"/><rect class="cls-13" x="221.88" y="229.91" width="35.81" height="18.14" rx="0.68" ry="0.68"/><circle class="cls-10" cx="239.79" cy="238.98" r="6.29"/><circle class="cls-13" cx="239.79" cy="238.98" r="5.42"/><polygon class="cls-10" points="242.46 238.69 240.48 239.83 238.5 240.98 238.5 238.69 238.5 236.4 240.48 237.55 242.46 238.69"/><path class="cls-22" d="M249.58,235.21H220v14.45a.66.66,0,0,0,.65.66h29.62V235.86A.65.65,0,0,0,249.58,235.21Z"/><rect class="cls-27" x="207.13" y="236.41" width="39.65" height="22.67" rx="0.65" ry="0.65"/><rect class="cls-10" x="208" y="237.41" width="37.91" height="20.67" rx="0.61" ry="0.61"/><rect class="cls-13" x="209.05" y="238.68" width="35.81" height="18.14" rx="0.68" ry="0.68"/><circle class="cls-10" cx="226.95" cy="247.75" r="6.29"/><path class="cls-13" d="M232.37,247.75a5.42,5.42,0,1,1-5.42-5.42A5.42,5.42,0,0,1,232.37,247.75Z"/><polygon class="cls-10" points="229.62 247.46 227.64 248.6 225.66 249.75 225.66 247.46 225.66 245.17 227.64 246.32 229.62 247.46"/><path class="cls-13" d="M340.29,113.69a1.23,1.23,0,0,1-.53-.11,3.13,3.13,0,0,1-1.92-2.89v-8.87a1.36,1.36,0,0,1,2.72,0v8.87a.43.43,0,0,0,.27.39,1.36,1.36,0,0,1-.54,2.61Z"/><path class="cls-28" d="M398,93.72a18.28,18.28,0,0,0-2,.06c0-.36.06-.73.07-1.1.17-8.56-8.36-15.67-19.05-15.88-8.76-.18-16.26,4.33-18.77,10.68a17.82,17.82,0,0,0-6-1.17c-8.14-.16-14.85,5-15,11.63s6.36,12,14.5,12.22c5.51.11,41.15-.13,45.9,0,6.92.14,12.61-3.42,12.7-8S404.94,93.86,398,93.72Z"/><path class="cls-29" d="M376.58,80.19H377a18.5,18.5,0,0,1,11.48,4,10.73,10.73,0,0,1,4.23,8.39c0,.26,0,.53-.06.8l-.44,4.1,4.11-.34c.43,0,.87,0,1.3,0H398a13.09,13.09,0,0,1,7,2c.64.43,2.1,1.59,2.08,3s-1.48,2.46-2.1,2.86a13,13,0,0,1-6.81,1.76h-.33c-.79,0-2.43,0-5,0-4.2,0-10.23,0-16.6,0-6.54,0-13.29,0-18.12,0-3.17,0-5.19,0-6.17,0a13.12,13.12,0,0,1-8.23-2.9A7.51,7.51,0,0,1,340.69,98c.09-4.58,5.12-8.3,11.21-8.3h.3a14.1,14.1,0,0,1,4.87.94l3.15,1.22,1.25-3.14a12.62,12.62,0,0,1,5.42-6,19,19,0,0,1,9.69-2.54Zm0-3.4c-8.55,0-15.81,4.46-18.28,10.69a17.82,17.82,0,0,0-6-1.17h-.37c-8,0-14.48,5.15-14.61,11.63s6.36,12,14.5,12.22c1.08,0,3.31,0,6.24,0,9.44,0,26.12-.09,34.72-.09l4.94,0h.39c6.74,0,12.22-3.51,12.31-8s-5.45-8.31-12.37-8.45h-.39c-.54,0-1.06,0-1.58.07,0-.36.06-.73.07-1.1.17-8.56-8.36-15.67-19.05-15.88Z"/><rect class="cls-13" x="336.6" y="110.19" width="16.32" height="12.42" rx="1.91" ry="1.91"/><ellipse class="cls-10" cx="345.06" cy="99.45" rx="2.67" ry="2.98"/><path class="cls-13" d="M348.79,113.83h-3.9a1.36,1.36,0,0,1,0-2.72h3.9a.42.42,0,0,0,.42-.42V101.3a.42.42,0,0,0-.42-.42h-3.55a1.36,1.36,0,0,1,0-2.72h3.55a3.15,3.15,0,0,1,3.15,3.14v9.39A3.15,3.15,0,0,1,348.79,113.83Z"/><path class="cls-30" d="M346.42,115a1.66,1.66,0,1,0-2.52,1.42v2.1a.86.86,0,1,0,1.71,0v-2.1A1.67,1.67,0,0,0,346.42,115Z"/><path class="cls-22" d="M195.57,264v-7.79a2,2,0,0,0-2-2H135.19V266h58.42A2,2,0,0,0,195.57,264Z"/><path class="cls-22" d="M193.61,236.83H135.19v11.71h58.42a2,2,0,0,0,2-2v-7.79A2,2,0,0,0,193.61,236.83Z"/><rect class="cls-31" x="129.07" y="233.56" width="63.23" height="11.71" rx="1.96" ry="1.96"/><rect class="cls-10" x="132.09" y="235.21" width="57.2" height="8.41" rx="1.58" ry="1.58"/><rect class="cls-32" x="129.07" y="250.96" width="63.23" height="11.71" rx="1.96" ry="1.96"/><rect class="cls-10" x="132.09" y="252.61" width="57.2" height="8.41" rx="1.58" ry="1.58"/><path class="cls-13" d="M139.05,239.42a1.36,1.36,0,1,1-1.36-1.36A1.35,1.35,0,0,1,139.05,239.42Zm4.94-1.36a1.36,1.36,0,1,0,1.35,1.36A1.36,1.36,0,0,0,144,238.06Zm6.29,0a1.36,1.36,0,1,0,1.35,1.36A1.35,1.35,0,0,0,150.28,238.06Zm6.29,0a1.36,1.36,0,1,0,1.36,1.36A1.36,1.36,0,0,0,156.57,238.06Zm6.3,0a1.36,1.36,0,1,0,1.35,1.36A1.36,1.36,0,0,0,162.87,238.06Zm6.29,0a1.36,1.36,0,1,0,1.35,1.36A1.35,1.35,0,0,0,169.16,238.06Z"/><path class="cls-13" d="M139.05,256.7a1.36,1.36,0,1,1-1.36-1.35A1.36,1.36,0,0,1,139.05,256.7Zm4.94-1.35a1.36,1.36,0,1,0,1.35,1.35A1.36,1.36,0,0,0,144,255.35Zm6.29,0a1.36,1.36,0,1,0,1.35,1.35A1.35,1.35,0,0,0,150.28,255.35Zm6.29,0a1.36,1.36,0,1,0,1.36,1.35A1.36,1.36,0,0,0,156.57,255.35Zm6.3,0a1.36,1.36,0,1,0,1.35,1.35A1.36,1.36,0,0,0,162.87,255.35Zm6.29,0a1.36,1.36,0,1,0,1.35,1.35A1.35,1.35,0,0,0,169.16,255.35Z"/><path class="cls-13" d="M182,241.56a7.42,7.42,0,0,1-4.57-1.91.51.51,0,0,1-.16-.37.52.52,0,0,1,.16-.37,6.45,6.45,0,0,1,9.14,0,.52.52,0,0,1,.16.37.51.51,0,0,1-.16.37A7.45,7.45,0,0,1,182,241.56Zm-3.41-2.28a5.23,5.23,0,0,0,6.81,0,5.26,5.26,0,0,0-6.81,0Z"/><path class="cls-13" d="M182,241.34a2.06,2.06,0,1,1,2.06-2.06A2.06,2.06,0,0,1,182,241.34Zm0-3.1a1,1,0,1,0,1,1A1,1,0,0,0,182,238.24Z"/><rect class="cls-13" x="176.65" y="255.01" width="5.18" height="3.72" rx="1.31" ry="1.31"/><path class="cls-13" d="M186.17,258h-8.91a.51.51,0,0,1-.51-.51.51.51,0,0,1,.51-.51h8.4v-1.33a.51.51,0,0,1,.51-.51.51.51,0,0,1,.51.51v1.84A.51.51,0,0,1,186.17,258Z"/><path class="cls-13" d="M185,257.92a.51.51,0,0,1-.51-.51V255.9a.51.51,0,1,1,1,0v1.51A.51.51,0,0,1,185,257.92Z"/><path class="cls-13" d="M183.1,257.92a.51.51,0,0,1-.51-.51v-2.05a.52.52,0,0,1,1,0v2.05A.51.51,0,0,1,183.1,257.92Z"/><path class="cls-10" d="M177.64,257.49a.38.38,0,0,1-.38-.38v-.59a.38.38,0,0,1,.76,0v.59A.38.38,0,0,1,177.64,257.49Z"/><path class="cls-33" d="M130.51,322.78S97.1,299.57,83,313c-11.29,10.68,8.74,23.23,34.37,19.86,18-2.38,20.09,1.07,23.25,1,23.51-1.8,55.19-8.84,39.77-19.89-21-15.05-35.21.91-42.53,4.88Z"/><path class="cls-34" d="M173.72,313.37c-8.79-1.81-42.24,10.6-42.24,10.6s-29.14-8.78-36.11-9.62-10.17,1.81-10.17,1.81,3.29-3.7,7.11-4,9.34-1.25,9.34-1.25,55.76-2.65,63.14-1S173.72,313.37,173.72,313.37Z"/><path class="cls-35" d="M126.33,268.21c-1.32.21-21.92,9.19-22.17,13s5.64,34.29,17,38.27,24.16,0,24.16,0,13.38-33,9.41-39.31-22-11.92-22-11.92Z"/><path class="cls-36" d="M111.19,275.32c-19.67,10.55-24.51,29.58-19.3,33.78,3.65,2.94,17.4,9.44,29.31,9a194.42,194.42,0,0,1,23.11.7s20.45-4.16,24.53-10.29-7.24-26-17.38-31.78S111.19,275.32,111.19,275.32Z"/><path class="cls-37" d="M130,280.13a5,5,0,0,1-5-4.95V258.52a5,5,0,1,1,9.9,0v16.66A5,5,0,0,1,130,280.13Z"/><path class="cls-38" d="M130,253.57a5,5,0,0,0-5,4.95v13.62c2.92,2.44,5.74,1.16,9.9-2.06V258.52A5,5,0,0,0,130,253.57Z"/><path class="cls-37" d="M140.82,259.2c-.82,1.66-2.14,2.58-2.95,2.05s-.82-2.29,0-3.95,2.14-2.58,2.95-2.06S141.63,257.54,140.82,259.2Z"/><path class="cls-37" d="M121.67,257.42c.94,1.51,1.12,3.34.4,4.08s-2.06.12-3-1.39-1.12-3.34-.4-4.08S120.73,255.91,121.67,257.42Z"/><path class="cls-37" d="M138.69,259.09c0,6.05-3.81,11-8.51,11s-8.51-4.91-8.51-11,3.81-11,8.51-11S138.69,253,138.69,259.09Z"/><path class="cls-39" d="M109.92,285.4c1.3,6,7.52,22.55,7.52,22.55s-5.76-6.56-11.89-6.94-8.4-.46-8.36,1c0,.29,1-6.6,5.76-10.88A72.28,72.28,0,0,1,109.92,285.4Z"/><path class="cls-13" d="M147.29,322.85H113.62a2.77,2.77,0,0,1-2.73-2.32l-4.06-24.23a2.78,2.78,0,0,1,2.73-3.24h41.79a2.78,2.78,0,0,1,2.74,3.24L150,320.53A2.77,2.77,0,0,1,147.29,322.85Z"/><path class="cls-40" d="M147.29,322.85H113.62a2.75,2.75,0,0,1-2.73-2.24l-4.06-23.35a2.7,2.7,0,0,1,2.73-3.12h41.79a2.7,2.7,0,0,1,2.74,3.12L150,320.61A2.75,2.75,0,0,1,147.29,322.85Z"/><path class="cls-34" d="M134.91,332.39c-.21,0-21.75-5.43-26.56-1.45s16.1,4,19.86,3.17S134.91,332.39,134.91,332.39Z"/><path class="cls-34" d="M139.71,333.36a16.46,16.46,0,0,1,10.67-2.84c6.06.63,11.29,2,6.06,3.59a38.37,38.37,0,0,1-13.17,1.64A4.57,4.57,0,0,1,139.71,333.36Z"/><path class="cls-34" d="M127.46,243.64c-5.53,1.68-3.6,17.24,2.72,16.73s6.58-7.24,6.13-11.6S133.17,241.91,127.46,243.64Z"/><path class="cls-34" d="M125.48,255.18c-1.54-1.48-3.66,3.16-2.82,5.2s-.34,3.23.79,5.42-2.08-1.39-2.52-4-.71-7.18-1.35-9.23,0-5.61,2.89-6.34,3.52-2.06,4.61-2.12,6.28.45,8.84,1.86a6.64,6.64,0,0,1,3.78,6.73c-.19,3.2-1,11.41-1.79,12.75s-1.17,1-.94.26,1.07-5.38.43-7.05-.32-5.77-2-6.09-1.28,2.52-3.27,2.74A57.91,57.91,0,0,1,125.48,255.18Z"/></g></g></svg>